<svg width="169" height="48" viewBox="0 0 169 48" fill="none" xmlns="http://www.w3.org/2000/svg">
<circle cx="24" cy="24" r="24" fill="#A3CC00"/>
<path d="M23.134 10.5C23.5189 9.83333 24.4811 9.83333 24.866 10.5L36.1244 30C36.5093 30.6667 36.0281 31.5 35.2583 31.5H12.7417C11.9719 31.5 11.4907 30.6667 11.8756 30L23.134 10.5Z" fill="#1C1919"/>
<path d="M76.9545 15.0455V32.5H74.9091L65.3977 18.7955H65.2273V32.5H63.1136V15.0455H65.1591L74.7045 28.7841H74.875V15.0455H76.9545ZM86.3999 32.7727C85.1385 32.7727 84.0504 32.4943 83.1357 31.9375C82.2266 31.375 81.5249 30.5909 81.0305 29.5852C80.5419 28.5739 80.2976 27.3977 80.2976 26.0568C80.2976 24.7159 80.5419 23.5341 81.0305 22.5114C81.5249 21.483 82.2124 20.6818 83.093 20.108C83.9794 19.5284 85.0135 19.2386 86.1953 19.2386C86.8771 19.2386 87.5504 19.3523 88.2152 19.5795C88.88 19.8068 89.4851 20.1761 90.0305 20.6875C90.576 21.1932 91.0107 21.8636 91.3345 22.6989C91.6584 23.5341 91.8203 24.5625 91.8203 25.7841V26.6364H81.7294V24.8977H89.7749C89.7749 24.1591 89.6271 23.5 89.3317 22.9205C89.0419 22.3409 88.6271 21.8835 88.0874 21.5483C87.5533 21.2131 86.9226 21.0455 86.1953 21.0455C85.3942 21.0455 84.701 21.2443 84.1158 21.642C83.5362 22.0341 83.0902 22.5455 82.7777 23.1761C82.4652 23.8068 82.3089 24.483 82.3089 25.2045V26.3636C82.3089 27.3523 82.4794 28.1903 82.8203 28.8778C83.1669 29.5597 83.647 30.0795 84.2607 30.4375C84.8743 30.7898 85.5874 30.9659 86.3999 30.9659C86.9283 30.9659 87.4055 30.892 87.8317 30.7443C88.2635 30.5909 88.6357 30.3636 88.9482 30.0625C89.2607 29.7557 89.5021 29.375 89.6726 28.9205L91.6158 29.4659C91.4112 30.125 91.0675 30.7045 90.5845 31.2045C90.1016 31.6989 89.505 32.0852 88.7947 32.3636C88.0845 32.6364 87.2862 32.7727 86.3999 32.7727ZM94.505 32.5V30.9659L101.937 21.4205V21.2841H94.7436V19.4091H104.528V21.0114L97.3004 30.4886V30.625H104.766V32.5H94.505ZM117.683 19.4091C117.58 18.5455 117.165 17.875 116.438 17.3977C115.711 16.9205 114.819 16.6818 113.762 16.6818C112.989 16.6818 112.313 16.8068 111.734 17.0568C111.16 17.3068 110.711 17.6506 110.387 18.0881C110.069 18.5256 109.91 19.0227 109.91 19.5795C109.91 20.0455 110.021 20.446 110.242 20.7812C110.469 21.1108 110.759 21.3864 111.112 21.608C111.464 21.8239 111.833 22.0028 112.219 22.1449C112.606 22.2812 112.961 22.392 113.285 22.4773L115.058 22.9545C115.512 23.0739 116.018 23.2386 116.575 23.4489C117.137 23.6591 117.674 23.946 118.185 24.3097C118.702 24.6676 119.129 25.1278 119.464 25.6903C119.799 26.2528 119.967 26.9432 119.967 27.7614C119.967 28.7045 119.719 29.5568 119.225 30.3182C118.737 31.0795 118.021 31.6847 117.077 32.1335C116.14 32.5824 115.001 32.8068 113.66 32.8068C112.41 32.8068 111.327 32.6051 110.413 32.2017C109.504 31.7983 108.788 31.2358 108.265 30.5142C107.748 29.7926 107.455 28.9545 107.387 28H109.569C109.626 28.6591 109.847 29.2045 110.234 29.6364C110.626 30.0625 111.12 30.3807 111.717 30.5909C112.319 30.7955 112.967 30.8977 113.66 30.8977C114.467 30.8977 115.191 30.767 115.833 30.5057C116.475 30.2386 116.984 29.8693 117.359 29.3977C117.734 28.9205 117.921 28.3636 117.921 27.7273C117.921 27.1477 117.759 26.6761 117.435 26.3125C117.112 25.9489 116.685 25.6534 116.157 25.4261C115.629 25.1989 115.058 25 114.444 24.8295L112.296 24.2159C110.933 23.8239 109.853 23.2642 109.058 22.5369C108.262 21.8097 107.864 20.858 107.864 19.6818C107.864 18.7045 108.129 17.8523 108.657 17.125C109.191 16.392 109.907 15.8239 110.805 15.4205C111.708 15.0114 112.717 14.8068 113.83 14.8068C114.955 14.8068 115.955 15.0085 116.83 15.4119C117.705 15.8097 118.398 16.3551 118.91 17.0483C119.427 17.7415 119.7 18.5284 119.728 19.4091H117.683ZM126.135 32.5L122.146 19.4091H124.26L127.089 29.4318H127.226L130.021 19.4091H132.169L134.93 29.3977H135.067L137.896 19.4091H140.01L136.021 32.5H134.044L131.18 22.4432H130.976L128.112 32.5H126.135ZM146.521 32.8068C145.692 32.8068 144.939 32.6506 144.263 32.3381C143.587 32.0199 143.05 31.5625 142.652 30.9659C142.254 30.3636 142.055 29.6364 142.055 28.7841C142.055 28.0341 142.203 27.4261 142.499 26.9602C142.794 26.4886 143.189 26.1193 143.683 25.8523C144.178 25.5852 144.723 25.3864 145.32 25.2557C145.922 25.1193 146.527 25.0114 147.135 24.9318C147.93 24.8295 148.575 24.7528 149.07 24.7017C149.57 24.6449 149.933 24.5511 150.161 24.4205C150.393 24.2898 150.51 24.0625 150.51 23.7386V23.6705C150.51 22.8295 150.28 22.1761 149.82 21.7102C149.365 21.2443 148.675 21.0114 147.749 21.0114C146.788 21.0114 146.036 21.2216 145.49 21.642C144.945 22.0625 144.561 22.5114 144.339 22.9886L142.43 22.3068C142.771 21.5114 143.226 20.892 143.794 20.4489C144.368 20 144.993 19.6875 145.669 19.5114C146.351 19.3295 147.021 19.2386 147.68 19.2386C148.101 19.2386 148.584 19.2898 149.129 19.392C149.68 19.4886 150.212 19.6903 150.723 19.9972C151.24 20.304 151.669 20.767 152.01 21.3864C152.351 22.0057 152.521 22.8352 152.521 23.875V32.5H150.51V30.7273H150.408C150.271 31.0114 150.044 31.3153 149.726 31.6392C149.408 31.9631 148.984 32.2386 148.456 32.4659C147.928 32.6932 147.283 32.8068 146.521 32.8068ZM146.828 31C147.624 31 148.294 30.8438 148.839 30.5312C149.391 30.2188 149.805 29.8153 150.084 29.321C150.368 28.8267 150.51 28.3068 150.51 27.7614V25.9205C150.425 26.0227 150.237 26.1165 149.947 26.2017C149.663 26.2812 149.334 26.3523 148.959 26.4148C148.589 26.4716 148.229 26.5227 147.876 26.5682C147.53 26.608 147.249 26.642 147.033 26.6705C146.51 26.7386 146.021 26.8494 145.567 27.0028C145.118 27.1506 144.754 27.375 144.476 27.6761C144.203 27.9716 144.067 28.375 144.067 28.8864C144.067 29.5852 144.325 30.1136 144.842 30.4716C145.365 30.8239 146.027 31 146.828 31ZM156.192 37.4091V19.4091H158.136V21.4886H158.374C158.522 21.2614 158.727 20.9716 158.988 20.6193C159.255 20.2614 159.636 19.9432 160.13 19.6648C160.63 19.3807 161.306 19.2386 162.158 19.2386C163.261 19.2386 164.232 19.5142 165.073 20.0653C165.914 20.6165 166.57 21.3977 167.042 22.4091C167.513 23.4205 167.749 24.6136 167.749 25.9886C167.749 27.375 167.513 28.5767 167.042 29.5938C166.57 30.6051 165.917 31.3892 165.082 31.946C164.246 32.4972 163.283 32.7727 162.192 32.7727C161.352 32.7727 160.678 32.6335 160.173 32.3551C159.667 32.071 159.278 31.75 159.005 31.392C158.732 31.0284 158.522 30.7273 158.374 30.4886H158.204V37.4091H156.192ZM158.17 25.9545C158.17 26.9432 158.315 27.8153 158.604 28.571C158.894 29.321 159.317 29.9091 159.874 30.3352C160.431 30.7557 161.113 30.9659 161.92 30.9659C162.761 30.9659 163.462 30.7443 164.025 30.3011C164.593 29.8523 165.019 29.25 165.303 28.4943C165.593 27.733 165.738 26.8864 165.738 25.9545C165.738 25.0341 165.596 24.2045 165.312 23.4659C165.033 22.7216 164.61 22.1335 164.042 21.7017C163.479 21.2642 162.772 21.0455 161.92 21.0455C161.102 21.0455 160.414 21.2528 159.857 21.6676C159.3 22.0767 158.88 22.6506 158.596 23.3892C158.312 24.1222 158.17 24.9773 158.17 25.9545Z" fill="white"/>
</svg>
