<svg width="696" height="302" viewBox="0 0 696 302" fill="none" xmlns="http://www.w3.org/2000/svg">
<rect x="54" y="191.459" width="7" height="50.1965" fill="#5CFF9C"/>
<rect x="57" y="184.158" width="1" height="64.7991" fill="#5CFF9C"/>
<rect x="67" y="186.537" width="7" height="22.6238" fill="#5CFF9C"/>
<rect x="70" y="183.246" width="1" height="29.2052" fill="#5CFF9C"/>
<rect x="80" y="191.459" width="7" height="3.65066" fill="#AD2809"/>
<rect x="83" y="184.158" width="1" height="38.3319" fill="#AD2809"/>
<rect x="93" y="188.953" width="7" height="14.1399" fill="#AD2809"/>
<rect x="96" y="186.896" width="1" height="18.2533" fill="#AD2809"/>
<rect x="106" y="193.838" width="7" height="22.6238" fill="#AD2809"/>
<rect x="109" y="190.547" width="1" height="41.9825" fill="#AD2809"/>
<rect x="119" y="210.625" width="7" height="7.30131" fill="#5CFF9C"/>
<rect x="122" y="199.674" width="1" height="25.5546" fill="#5CFF9C"/>
<rect x="132" y="168.643" width="7" height="50.1965" fill="#5CFF9C"/>
<rect x="135" y="161.342" width="1" height="64.7991" fill="#5CFF9C"/>
<rect x="145" y="161.174" width="7" height="17.6748" fill="#5CFF9C"/>
<rect x="148" y="158.604" width="1" height="22.8166" fill="#5CFF9C"/>
<rect x="158" y="161.791" width="7" height="21.9168" fill="#AD2809"/>
<rect x="161" y="158.604" width="1" height="28.2926" fill="#AD2809"/>
<rect x="171" y="168.283" width="7" height="22.6238" fill="#AD2809"/>
<rect x="174" y="155.865" width="1" height="38.3319" fill="#AD2809"/>
<rect x="184" y="175.121" width="7" height="44.5406" fill="#AD2809"/>
<rect x="187" y="168.643" width="1" height="57.4978" fill="#AD2809"/>
<rect x="197" y="204.48" width="7" height="20.5028" fill="#5CFF9C"/>
<rect x="200" y="201.498" width="1" height="26.4672" fill="#5CFF9C"/>
<rect x="210" y="200.316" width="7" height="16.9678" fill="#5CFF9C"/>
<rect x="213" y="197.848" width="1" height="21.9039" fill="#5CFF9C"/>
<rect x="223" y="205.148" width="7" height="17.3406" fill="#AD2809"/>
<rect x="226" y="197.848" width="1" height="28.2926" fill="#AD2809"/>
<rect x="236" y="185.07" width="7" height="33.7686" fill="#5CFF9C"/>
<rect x="239" y="161.342" width="1" height="64.7991" fill="#5CFF9C"/>
<rect x="249" y="140.35" width="7" height="50.1965" fill="#5CFF9C"/>
<rect x="252" y="133.049" width="1" height="58.4105" fill="#5CFF9C"/>
<rect x="262" y="67.4551" width="7" height="76.1089" fill="#5CFF9C"/>
<rect x="265" y="56.3848" width="1" height="89.441" fill="#5CFF9C"/>
<rect x="275" y="67.3359" width="7" height="50.1965" fill="#AD2809"/>
<path d="M278 60.0352H279V124.834H278V60.0352Z" fill="#AD2809"/>
<rect x="288" y="96.8906" width="7" height="21.2098" fill="#5CFF9C"/>
<rect x="291" y="93.8047" width="1" height="27.3799" fill="#5CFF9C"/>
<rect x="301" y="85.1523" width="7" height="34.6427" fill="#5CFF9C"/>
<rect x="304" y="80.1133" width="1" height="44.7205" fill="#5CFF9C"/>
<rect x="314" y="92.8906" width="7" height="50.1965" fill="#AD2809"/>
<rect x="317" y="85.5898" width="1" height="64.7991" fill="#AD2809"/>
<rect x="327" y="117.688" width="7" height="26.1587" fill="#5CFF9C"/>
<rect x="330" y="113.883" width="1" height="33.7686" fill="#5CFF9C"/>
<rect x="340" y="105.746" width="7" height="38.1776" fill="#5CFF9C"/>
<rect x="343" y="100.193" width="1" height="49.2838" fill="#5CFF9C"/>
<rect x="353" y="56.3848" width="7" height="50.1965" fill="#5CFF9C"/>
<rect x="356" y="49.084" width="1" height="64.7991" fill="#5CFF9C"/>
<rect x="366" y="55.5117" width="7" height="19.0888" fill="#AD2809"/>
<rect x="369" y="52.7344" width="1" height="24.6419" fill="#AD2809"/>
<rect x="379" y="74.6387" width="7" height="50.1965" fill="#AD2809"/>
<rect x="382" y="67.3379" width="1" height="64.7991" fill="#AD2809"/>
<rect x="392" y="108.033" width="7" height="16.2608" fill="#5CFF9C"/>
<rect x="395" y="81.9395" width="1" height="44.7205" fill="#5CFF9C"/>
<rect x="405" y="75.5508" width="7" height="50.1965" fill="#5CFF9C"/>
<rect x="408" y="68.25" width="1" height="64.7991" fill="#5CFF9C"/>
<rect x="418" y="54.9082" width="7" height="21.2098" fill="#5CFF9C"/>
<rect x="421" y="51.8223" width="1" height="27.3799" fill="#5CFF9C"/>
<rect x="431" y="54.0703" width="7" height="9.19091" fill="#AD2809"/>
<rect x="434" y="52.7344" width="1" height="11.8646" fill="#AD2809"/>
<rect x="444" y="53.6465" width="7" height="50.1965" fill="#AD2809"/>
<rect x="447" y="46.3457" width="1" height="137.812" fill="#AD2809"/>
<rect x="457" y="81.5801" width="7" height="22.6238" fill="#5CFF9C"/>
<rect x="460" y="78.2891" width="1" height="29.2052" fill="#5CFF9C"/>
<rect x="470" y="65.5117" width="7" height="16.4279" fill="#5CFF9C"/>
<rect x="473" y="60.0352" width="1" height="50.1965" fill="#5CFF9C"/>
<rect x="483" y="54.5605" width="7" height="10.952" fill="#5CFF9C"/>
<rect x="486" y="39.957" width="1" height="28.2926" fill="#5CFF9C"/>
<rect x="496" y="54.5586" width="7" height="4.56332" fill="#AD2809"/>
<rect x="499" y="47.2578" width="1" height="23.7293" fill="#AD2809"/>
<line x1="43.5185" y1="2.29186e-08" x2="43.5184" y2="283.131" stroke="white" stroke-opacity="0.1" stroke-width="1.04863"/>
<line x1="106.436" y1="2.29186e-08" x2="106.436" y2="283.131" stroke="white" stroke-opacity="0.1" stroke-width="1.04863"/>
<line x1="169.354" y1="2.29186e-08" x2="169.354" y2="283.131" stroke="white" stroke-opacity="0.1" stroke-width="1.04863"/>
<line x1="232.272" y1="2.29186e-08" x2="232.272" y2="283.131" stroke="white" stroke-opacity="0.1" stroke-width="1.04863"/>
<line x1="295.19" y1="2.29186e-08" x2="295.19" y2="283.131" stroke="white" stroke-opacity="0.1" stroke-width="1.04863"/>
<line x1="358.108" y1="2.29186e-08" x2="358.108" y2="283.131" stroke="white" stroke-opacity="0.1" stroke-width="1.04863"/>
<line x1="421.026" y1="2.29186e-08" x2="421.026" y2="283.131" stroke="white" stroke-opacity="0.1" stroke-width="1.04863"/>
<line x1="483.944" y1="2.29186e-08" x2="483.944" y2="283.131" stroke="white" stroke-opacity="0.1" stroke-width="1.04863"/>
<line x1="546.862" y1="2.29186e-08" x2="546.862" y2="283.131" stroke="white" stroke-opacity="0.1" stroke-width="1.04863"/>
<line x1="609.78" y1="2.29186e-08" x2="609.78" y2="283.131" stroke="white" stroke-opacity="0.1" stroke-width="1.04863"/>
<line x1="672.698" y1="2.29186e-08" x2="672.698" y2="283.131" stroke="white" stroke-opacity="0.1" stroke-width="1.04863"/>
<line x1="681.611" y1="278.413" x2="38.7998" y2="278.413" stroke="white" stroke-opacity="0.1" stroke-width="1.04863"/>
<line x1="681.611" y1="234.37" x2="38.7998" y2="234.37" stroke="white" stroke-opacity="0.1" stroke-width="1.04863"/>
<line x1="681.611" y1="190.327" x2="38.7998" y2="190.327" stroke="white" stroke-opacity="0.1" stroke-width="1.04863"/>
<line x1="681.611" y1="146.284" x2="38.7998" y2="146.284" stroke="white" stroke-opacity="0.1" stroke-width="1.04863"/>
<line x1="681.611" y1="102.243" x2="38.7998" y2="102.243" stroke="white" stroke-opacity="0.1" stroke-width="1.04863"/>
<line x1="681.611" y1="58.2001" x2="38.7998" y2="58.2001" stroke="white" stroke-opacity="0.1" stroke-width="1.04863"/>
<line x1="681.611" y1="14.1571" x2="38.7998" y2="14.1571" stroke="white" stroke-opacity="0.1" stroke-width="1.04863"/>
<path d="M3.35875 18.2931V8.76012H3.96946V18.2931H3.35875ZM5.26907 11.7169C5.22935 11.3643 5.0655 11.0912 4.77753 10.8976C4.48955 10.7015 4.1271 10.6034 3.69017 10.6034C3.37737 10.6034 3.10677 10.6531 2.87837 10.7524C2.64998 10.8492 2.47247 10.9833 2.34586 11.1546C2.22174 11.3234 2.15967 11.5158 2.15967 11.7317C2.15967 11.913 2.20188 12.0694 2.28628 12.2009C2.37317 12.3325 2.48613 12.443 2.62515 12.5324C2.76666 12.6193 2.91809 12.6925 3.07946 12.7521C3.24083 12.8092 3.39599 12.8563 3.54494 12.8936L4.28971 13.0872C4.533 13.1468 4.78249 13.2275 5.0382 13.3293C5.2939 13.4311 5.53098 13.5651 5.74945 13.7314C5.96791 13.8978 6.14418 14.1038 6.27823 14.3496C6.41477 14.5954 6.48305 14.8896 6.48305 15.2322C6.48305 15.6641 6.37133 16.0477 6.1479 16.3828C5.92695 16.718 5.60546 16.9824 5.18343 17.176C4.76387 17.3696 4.25619 17.4665 3.66038 17.4665C3.08939 17.4665 2.59536 17.3758 2.17829 17.1946C1.76122 17.0134 1.43476 16.7564 1.19892 16.4238C0.963079 16.0886 0.832745 15.6914 0.807919 15.2322H1.96231C1.98465 15.5077 2.07402 15.7374 2.23042 15.9211C2.38931 16.1023 2.59164 16.2376 2.83741 16.327C3.08567 16.4138 3.35751 16.4573 3.65293 16.4573C3.97814 16.4573 4.26736 16.4064 4.52058 16.3046C4.77629 16.2003 4.97737 16.0564 5.12385 15.8727C5.27032 15.6865 5.34355 15.4692 5.34355 15.221C5.34355 14.9951 5.279 14.8101 5.14991 14.6661C5.0233 14.5221 4.85076 14.403 4.6323 14.3086C4.41632 14.2143 4.17178 14.1311 3.8987 14.0591L2.99753 13.8134C2.38683 13.647 1.90273 13.4025 1.54524 13.0798C1.19023 12.757 1.01273 12.33 1.01273 11.7988C1.01273 11.3594 1.13189 10.9758 1.37022 10.6481C1.60854 10.3204 1.93128 10.066 2.33842 9.88472C2.74556 9.70101 3.20483 9.60916 3.71624 9.60916C4.23261 9.60916 4.68816 9.69977 5.08288 9.881C5.48009 10.0622 5.79289 10.3117 6.02129 10.6295C6.24969 10.9448 6.36885 11.3072 6.37878 11.7169H5.26907ZM13.1915 17.4441C12.8514 17.4391 12.5163 17.3771 12.1861 17.2579C11.8584 17.1388 11.5605 16.9402 11.2924 16.6621C11.0243 16.3841 10.8095 16.0104 10.6482 15.5412C10.4893 15.072 10.4098 14.4861 10.4098 13.7836C10.4098 13.1183 10.4756 12.5274 10.6072 12.011C10.7413 11.4947 10.9336 11.059 11.1844 10.704C11.4351 10.3465 11.738 10.0746 12.093 9.88845C12.448 9.70226 12.8465 9.60916 13.2884 9.60916C13.7427 9.60916 14.1461 9.69853 14.4986 9.87728C14.8511 10.056 15.1366 10.303 15.3551 10.6183C15.576 10.9336 15.7163 11.2923 15.7759 11.6945H14.6401C14.5631 11.3767 14.4105 11.1173 14.1821 10.9162C13.9537 10.7151 13.6558 10.6146 13.2884 10.6146C12.7298 10.6146 12.2941 10.8579 11.9813 11.3445C11.671 11.831 11.5146 12.5075 11.5121 13.374H11.5679C11.6995 13.158 11.8609 12.9743 12.052 12.8228C12.2457 12.6689 12.4617 12.551 12.7 12.4691C12.9408 12.3847 13.194 12.3425 13.4597 12.3425C13.9015 12.3425 14.3012 12.4504 14.6587 12.6664C15.0187 12.8799 15.3054 13.1754 15.5189 13.5527C15.7324 13.9301 15.8392 14.362 15.8392 14.8486C15.8392 15.3352 15.7287 15.7758 15.5078 16.1706C15.2893 16.5653 14.9815 16.8781 14.5843 17.109C14.187 17.3374 13.7228 17.4491 13.1915 17.4441ZM13.1878 16.4759C13.4808 16.4759 13.7427 16.4039 13.9735 16.2599C14.2044 16.1159 14.3869 15.9223 14.5209 15.679C14.655 15.4357 14.722 15.1639 14.722 14.8635C14.722 14.5706 14.6562 14.3037 14.5247 14.0629C14.3956 13.8221 14.2168 13.6309 13.9884 13.4894C13.7625 13.3479 13.5043 13.2771 13.2139 13.2771C12.9929 13.2771 12.7881 13.3193 12.5994 13.4037C12.4133 13.4882 12.2494 13.6048 12.1079 13.7538C11.9664 13.9027 11.8547 14.074 11.7728 14.2677C11.6933 14.4588 11.6536 14.6612 11.6536 14.8747C11.6536 15.1602 11.7194 15.4246 11.851 15.6678C11.985 15.9111 12.1675 16.1073 12.3984 16.2562C12.6317 16.4027 12.8949 16.4759 13.1878 16.4759ZM19.8507 17.4665C19.2623 17.464 18.7596 17.3088 18.3425 17.001C17.9255 16.6931 17.6065 16.245 17.3855 15.6567C17.1646 15.0683 17.0541 14.3595 17.0541 13.5304C17.0541 12.7037 17.1646 11.9974 17.3855 11.4115C17.6089 10.8256 17.9292 10.3788 18.3463 10.0709C18.7658 9.76308 19.2673 9.60916 19.8507 9.60916C20.4341 9.60916 20.9343 9.76432 21.3514 10.0746C21.7685 10.3825 22.0875 10.8293 22.3084 11.4152C22.5318 11.9986 22.6436 12.7037 22.6436 13.5304C22.6436 14.362 22.5331 15.072 22.3121 15.6604C22.0912 16.2463 21.7722 16.6944 21.3551 17.0047C20.938 17.3125 20.4366 17.4665 19.8507 17.4665ZM19.8507 16.4722C20.3671 16.4722 20.7705 16.2202 21.0609 15.7163C21.3539 15.2123 21.5003 14.4837 21.5003 13.5304C21.5003 12.8973 21.4333 12.3623 21.2993 11.9254C21.1677 11.486 20.9778 11.1533 20.7295 10.9274C20.4837 10.699 20.1908 10.5848 19.8507 10.5848C19.3368 10.5848 18.9334 10.838 18.6404 11.3445C18.3475 11.8509 18.1998 12.5795 18.1973 13.5304C18.1973 14.1659 18.2631 14.7034 18.3947 15.1428C18.5287 15.5797 18.7186 15.9111 18.9644 16.137C19.2102 16.3605 19.5056 16.4722 19.8507 16.4722ZM26.6197 17.4665C26.0313 17.464 25.5286 17.3088 25.1115 17.001C24.6945 16.6931 24.3755 16.245 24.1545 15.6567C23.9336 15.0683 23.8231 14.3595 23.8231 13.5304C23.8231 12.7037 23.9336 11.9974 24.1545 11.4115C24.3779 10.8256 24.6982 10.3788 25.1153 10.0709C25.5348 9.76308 26.0363 9.60916 26.6197 9.60916C27.2031 9.60916 27.7033 9.76432 28.1204 10.0746C28.5375 10.3825 28.8565 10.8293 29.0774 11.4152C29.3008 11.9986 29.4126 12.7037 29.4126 13.5304C29.4126 14.362 29.3021 15.072 29.0811 15.6604C28.8602 16.2463 28.5412 16.6944 28.1241 17.0047C27.707 17.3125 27.2056 17.4665 26.6197 17.4665ZM26.6197 16.4722C27.1361 16.4722 27.5395 16.2202 27.8299 15.7163C28.1229 15.2123 28.2693 14.4837 28.2693 13.5304C28.2693 12.8973 28.2023 12.3623 28.0683 11.9254C27.9367 11.486 27.7468 11.1533 27.4985 10.9274C27.2527 10.699 26.9598 10.5848 26.6197 10.5848C26.1058 10.5848 25.7024 10.838 25.4094 11.3445C25.1165 11.8509 24.9688 12.5795 24.9663 13.5304C24.9663 14.1659 25.0321 14.7034 25.1637 15.1428C25.2977 15.5797 25.4876 15.9111 25.7334 16.137C25.9792 16.3605 26.2746 16.4722 26.6197 16.4722Z" fill="#878787"/>
<path d="M3.5226 62.3361V52.8031H4.1333V62.3361H3.5226ZM5.43292 55.7598C5.3932 55.4073 5.22935 55.1342 4.94138 54.9406C4.6534 54.7445 4.29095 54.6464 3.85402 54.6464C3.54121 54.6464 3.27062 54.696 3.04222 54.7953C2.81383 54.8922 2.63632 55.0262 2.50971 55.1975C2.38558 55.3663 2.32352 55.5587 2.32352 55.7747C2.32352 55.9559 2.36572 56.1123 2.45013 56.2439C2.53702 56.3755 2.64998 56.486 2.789 56.5753C2.93051 56.6622 3.08194 56.7355 3.24331 56.795C3.40467 56.8521 3.55983 56.8993 3.70879 56.9366L4.45355 57.1302C4.69685 57.1898 4.94634 57.2705 5.20205 57.3722C5.45775 57.474 5.69483 57.6081 5.9133 57.7744C6.13176 57.9407 6.30803 58.1468 6.44208 58.3926C6.57862 58.6383 6.64689 58.9325 6.64689 59.2751C6.64689 59.7071 6.53518 60.0906 6.31175 60.4258C6.0908 60.7609 5.76931 61.0253 5.34728 61.219C4.92772 61.4126 4.42004 61.5094 3.82423 61.5094C3.25324 61.5094 2.75921 61.4188 2.34214 61.2376C1.92507 61.0564 1.59861 60.7994 1.36277 60.4667C1.12693 60.1316 0.996593 59.7344 0.971768 59.2751H2.12616C2.1485 59.5507 2.23787 59.7803 2.39427 59.964C2.55316 60.1453 2.75549 60.2806 3.00126 60.3699C3.24951 60.4568 3.52135 60.5003 3.81678 60.5003C4.14199 60.5003 4.43121 60.4494 4.68443 60.3476C4.94014 60.2433 5.14122 60.0993 5.28769 59.9156C5.43416 59.7294 5.5074 59.5122 5.5074 59.2639C5.5074 59.038 5.44285 58.8531 5.31376 58.7091C5.18715 58.5651 5.01461 58.4459 4.79615 58.3516C4.58017 58.2573 4.33563 58.1741 4.06255 58.1021L3.16138 57.8563C2.55067 57.69 2.06658 57.4455 1.70909 57.1227C1.35408 56.8 1.17658 56.373 1.17658 55.8417C1.17658 55.4023 1.29574 55.0188 1.53407 54.6911C1.77239 54.3634 2.09513 54.1089 2.50226 53.9277C2.9094 53.744 3.36868 53.6521 3.88008 53.6521C4.39646 53.6521 4.85201 53.7427 5.24673 53.924C5.64394 54.1052 5.95674 54.3547 6.18514 54.6725C6.41353 54.9877 6.5327 55.3502 6.54263 55.7598H5.43292ZM13.2102 61.4871C12.7434 61.4871 12.3239 61.3977 11.9515 61.219C11.5816 61.0377 11.2862 60.7895 11.0652 60.4742C10.8443 60.1589 10.7264 59.7989 10.7115 59.3943H11.8286C11.8559 59.722 12.0011 59.9913 12.2643 60.2024C12.5275 60.4134 12.8427 60.5189 13.2102 60.5189C13.5031 60.5189 13.7625 60.4519 13.9884 60.3178C14.2168 60.1813 14.3956 59.9938 14.5247 59.7555C14.6562 59.5172 14.722 59.2453 14.722 58.94C14.722 58.6297 14.655 58.3529 14.5209 58.1096C14.3869 57.8663 14.2019 57.6751 13.9661 57.5361C13.7327 57.3971 13.4646 57.3263 13.1617 57.3238C12.9309 57.3238 12.6987 57.3636 12.4654 57.443C12.232 57.5224 12.0434 57.6267 11.8994 57.7558L10.8455 57.5994L11.2738 53.7564H15.4668V54.7432H12.2308L11.9887 56.877H12.0334C12.1824 56.733 12.3797 56.6126 12.6255 56.5158C12.8738 56.4189 13.1394 56.3705 13.4224 56.3705C13.8867 56.3705 14.3 56.481 14.6625 56.702C15.0274 56.9229 15.3141 57.2245 15.5227 57.6068C15.7337 57.9867 15.8379 58.4236 15.8355 58.9176C15.8379 59.4117 15.7262 59.8523 15.5003 60.2396C15.2769 60.6269 14.9666 60.9322 14.5694 61.1557C14.1746 61.3766 13.7216 61.4871 13.2102 61.4871ZM19.8507 61.5094C19.2623 61.5069 18.7596 61.3518 18.3425 61.0439C17.9255 60.7361 17.6065 60.288 17.3855 59.6996C17.1646 59.1113 17.0541 58.4025 17.0541 57.5733C17.0541 56.7466 17.1646 56.0403 17.3855 55.4545C17.6089 54.8686 17.9292 54.4217 18.3463 54.1139C18.7658 53.806 19.2673 53.6521 19.8507 53.6521C20.4341 53.6521 20.9343 53.8073 21.3514 54.1176C21.7685 54.4254 22.0875 54.8723 22.3084 55.4582C22.5318 56.0416 22.6436 56.7466 22.6436 57.5733C22.6436 58.405 22.5331 59.115 22.3121 59.7034C22.0912 60.2892 21.7722 60.7373 21.3551 61.0477C20.938 61.3555 20.4366 61.5094 19.8507 61.5094ZM19.8507 60.5152C20.3671 60.5152 20.7705 60.2632 21.0609 59.7592C21.3539 59.2553 21.5003 58.5266 21.5003 57.5733C21.5003 56.9403 21.4333 56.4053 21.2993 55.9684C21.1677 55.5289 20.9778 55.1963 20.7295 54.9704C20.4837 54.742 20.1908 54.6278 19.8507 54.6278C19.3368 54.6278 18.9334 54.881 18.6404 55.3874C18.3475 55.8939 18.1998 56.6225 18.1973 57.5733C18.1973 58.2089 18.2631 58.7463 18.3947 59.1857C18.5287 59.6227 18.7186 59.9541 18.9644 60.18C19.2102 60.4034 19.5056 60.5152 19.8507 60.5152ZM26.6197 61.5094C26.0313 61.5069 25.5286 61.3518 25.1115 61.0439C24.6945 60.7361 24.3755 60.288 24.1545 59.6996C23.9336 59.1113 23.8231 58.4025 23.8231 57.5733C23.8231 56.7466 23.9336 56.0403 24.1545 55.4545C24.3779 54.8686 24.6982 54.4217 25.1153 54.1139C25.5348 53.806 26.0363 53.6521 26.6197 53.6521C27.2031 53.6521 27.7033 53.8073 28.1204 54.1176C28.5375 54.4254 28.8565 54.8723 29.0774 55.4582C29.3009 56.0416 29.4126 56.7466 29.4126 57.5733C29.4126 58.405 29.3021 59.115 29.0811 59.7034C28.8602 60.2892 28.5412 60.7373 28.1241 61.0477C27.7071 61.3555 27.2056 61.5094 26.6197 61.5094ZM26.6197 60.5152C27.1361 60.5152 27.5395 60.2632 27.8299 59.7592C28.1229 59.2553 28.2693 58.5266 28.2693 57.5733C28.2693 56.9403 28.2023 56.4053 28.0683 55.9684C27.9367 55.5289 27.7468 55.1963 27.4985 54.9704C27.2527 54.742 26.9598 54.6278 26.6197 54.6278C26.1058 54.6278 25.7024 54.881 25.4094 55.3874C25.1165 55.8939 24.9688 56.6225 24.9663 57.5733C24.9663 58.2089 25.0321 58.7463 25.1637 59.1857C25.2977 59.6227 25.4876 59.9541 25.7334 60.18C25.9792 60.4034 26.2746 60.5152 26.6197 60.5152Z" fill="#878787"/>
<path d="M3.26658 150.42V140.887H3.87729V150.42H3.26658ZM5.17691 143.844C5.13719 143.491 4.97334 143.218 4.68536 143.025C4.39739 142.828 4.03493 142.73 3.598 142.73C3.2852 142.73 3.0146 142.78 2.78621 142.879C2.55781 142.976 2.38031 143.11 2.2537 143.282C2.12957 143.45 2.06751 143.643 2.06751 143.859C2.06751 144.04 2.10971 144.196 2.19412 144.328C2.28101 144.459 2.39396 144.57 2.53299 144.659C2.67449 144.746 2.82593 144.819 2.98729 144.879C3.14866 144.936 3.30382 144.983 3.45277 145.021L4.19754 145.214C4.44083 145.274 4.69033 145.354 4.94603 145.456C5.20174 145.558 5.43882 145.692 5.65728 145.858C5.87575 146.025 6.05201 146.231 6.18607 146.477C6.32261 146.722 6.39088 147.017 6.39088 147.359C6.39088 147.791 6.27917 148.175 6.05573 148.51C5.83479 148.845 5.5133 149.109 5.09126 149.303C4.67171 149.497 4.16403 149.593 3.56821 149.593C2.99722 149.593 2.5032 149.503 2.08613 149.322C1.66906 149.14 1.3426 148.883 1.10676 148.551C0.870914 148.216 0.74058 147.818 0.715754 147.359H1.87014C1.89249 147.635 1.98186 147.864 2.13826 148.048C2.29714 148.229 2.49947 148.365 2.74524 148.454C2.9935 148.541 3.26534 148.584 3.56076 148.584C3.88598 148.584 4.1752 148.533 4.42842 148.432C4.68412 148.327 4.88521 148.183 5.03168 148C5.17815 147.813 5.25139 147.596 5.25139 147.348C5.25139 147.122 5.18684 146.937 5.05775 146.793C4.93114 146.649 4.7586 146.53 4.54013 146.436C4.32415 146.341 4.07962 146.258 3.80654 146.186L2.90537 145.94C2.29466 145.774 1.81056 145.529 1.45307 145.207C1.09807 144.884 0.920565 144.457 0.920565 143.926C0.920565 143.486 1.03973 143.103 1.27805 142.775C1.51638 142.447 1.83911 142.193 2.24625 142.012C2.65339 141.828 3.11266 141.736 3.62407 141.736C4.14044 141.736 4.59599 141.827 4.99072 142.008C5.38793 142.189 5.70073 142.439 5.92912 142.756C6.15752 143.072 6.27668 143.434 6.28661 143.844H5.17691ZM13.0919 149.571C12.5805 149.571 12.1237 149.483 11.7216 149.307C11.3219 149.13 11.0053 148.886 10.772 148.573C10.5411 148.258 10.417 147.893 10.3996 147.478H11.5689C11.5838 147.704 11.6595 147.9 11.796 148.067C11.9351 148.23 12.1163 148.357 12.3397 148.446C12.5631 148.536 12.8114 148.581 13.0845 148.581C13.3849 148.581 13.6505 148.528 13.8814 148.424C14.1147 148.32 14.2972 148.175 14.4288 147.988C14.5604 147.8 14.6261 147.583 14.6261 147.337C14.6261 147.081 14.5604 146.856 14.4288 146.663C14.2997 146.467 14.1098 146.313 13.859 146.201C13.6108 146.089 13.3104 146.033 12.9579 146.033H12.3136V145.095H12.9579C13.2409 145.095 13.4891 145.044 13.7026 144.942C13.9186 144.841 14.0874 144.699 14.2091 144.518C14.3307 144.334 14.3915 144.119 14.3915 143.874C14.3915 143.638 14.3382 143.433 14.2314 143.259C14.1271 143.083 13.9782 142.945 13.7846 142.846C13.5934 142.747 13.3675 142.697 13.1068 142.697C12.8586 142.697 12.6264 142.743 12.4105 142.835C12.197 142.924 12.0232 143.053 11.8891 143.222C11.7551 143.388 11.6831 143.588 11.6731 143.821H10.5597C10.5721 143.409 10.6938 143.047 10.9247 142.734C11.158 142.421 11.4658 142.177 11.8482 142.001C12.2305 141.824 12.655 141.736 13.1217 141.736C13.6108 141.736 14.0328 141.832 14.3878 142.023C14.7453 142.212 15.0209 142.464 15.2145 142.779C15.4106 143.094 15.5075 143.439 15.505 143.814C15.5075 144.241 15.3883 144.603 15.1475 144.901C14.9092 145.199 14.5914 145.399 14.1942 145.501V145.56C14.7006 145.637 15.0929 145.839 15.3709 146.164C15.6514 146.489 15.7905 146.892 15.788 147.374C15.7905 147.794 15.6738 148.17 15.4379 148.502C15.2046 148.835 14.8856 149.097 14.4809 149.288C14.0763 149.477 13.6133 149.571 13.0919 149.571ZM19.8507 149.593C19.2623 149.591 18.7596 149.436 18.3425 149.128C17.9255 148.82 17.6065 148.372 17.3855 147.784C17.1646 147.195 17.0541 146.486 17.0541 145.657C17.0541 144.831 17.1646 144.124 17.3855 143.538C17.6089 142.953 17.9292 142.506 18.3463 142.198C18.7658 141.89 19.2673 141.736 19.8507 141.736C20.4341 141.736 20.9343 141.891 21.3514 142.202C21.7685 142.509 22.0875 142.956 22.3084 143.542C22.5318 144.126 22.6436 144.831 22.6436 145.657C22.6436 146.489 22.5331 147.199 22.3121 147.787C22.0912 148.373 21.7722 148.821 21.3551 149.132C20.938 149.439 20.4366 149.593 19.8507 149.593ZM19.8507 148.599C20.3671 148.599 20.7705 148.347 21.0609 147.843C21.3539 147.339 21.5003 146.611 21.5003 145.657C21.5003 145.024 21.4333 144.489 21.2993 144.052C21.1677 143.613 20.9778 143.28 20.7295 143.054C20.4837 142.826 20.1908 142.712 19.8507 142.712C19.3368 142.712 18.9334 142.965 18.6404 143.471C18.3475 143.978 18.1998 144.706 18.1973 145.657C18.1973 146.293 18.2631 146.83 18.3947 147.27C18.5287 147.707 18.7186 148.038 18.9644 148.264C19.2102 148.487 19.5056 148.599 19.8507 148.599ZM26.6197 149.593C26.0313 149.591 25.5286 149.436 25.1115 149.128C24.6945 148.82 24.3755 148.372 24.1545 147.784C23.9336 147.195 23.8231 146.486 23.8231 145.657C23.8231 144.831 23.9336 144.124 24.1545 143.538C24.3779 142.953 24.6982 142.506 25.1153 142.198C25.5348 141.89 26.0363 141.736 26.6197 141.736C27.2031 141.736 27.7033 141.891 28.1204 142.202C28.5375 142.509 28.8565 142.956 29.0774 143.542C29.3008 144.126 29.4126 144.831 29.4126 145.657C29.4126 146.489 29.3021 147.199 29.0811 147.787C28.8602 148.373 28.5412 148.821 28.1241 149.132C27.707 149.439 27.2056 149.593 26.6197 149.593ZM26.6197 148.599C27.1361 148.599 27.5395 148.347 27.8299 147.843C28.1229 147.339 28.2693 146.611 28.2693 145.657C28.2693 145.024 28.2023 144.489 28.0683 144.052C27.9367 143.613 27.7468 143.28 27.4985 143.054C27.2527 142.826 26.9598 142.712 26.6197 142.712C26.1058 142.712 25.7024 142.965 25.4094 143.471C25.1165 143.978 24.9688 144.706 24.9663 145.657C24.9663 146.293 25.0321 146.83 25.1637 147.27C25.2977 147.707 25.4876 148.038 25.7334 148.264C25.9792 148.487 26.2746 148.599 26.6197 148.599Z" fill="#878787"/>
<path d="M3.59428 194.463V184.93H4.20499V194.463H3.59428ZM5.50461 187.887C5.46488 187.534 5.30104 187.261 5.01306 187.068C4.72508 186.871 4.36263 186.773 3.9257 186.773C3.6129 186.773 3.3423 186.823 3.1139 186.922C2.88551 187.019 2.708 187.153 2.58139 187.324C2.45727 187.493 2.3952 187.686 2.3952 187.902C2.3952 188.083 2.43741 188.239 2.52181 188.371C2.6087 188.502 2.72166 188.613 2.86068 188.702C3.00219 188.789 3.15362 188.862 3.31499 188.922C3.47636 188.979 3.63152 189.026 3.78047 189.064L4.52524 189.257C4.76853 189.317 5.01802 189.397 5.27373 189.499C5.52943 189.601 5.76652 189.735 5.98498 189.901C6.20345 190.068 6.37971 190.274 6.51377 190.52C6.65031 190.765 6.71858 191.059 6.71858 191.402C6.71858 191.834 6.60686 192.218 6.38343 192.553C6.16248 192.888 5.84099 193.152 5.41896 193.346C4.99941 193.54 4.49172 193.636 3.89591 193.636C3.32492 193.636 2.83089 193.546 2.41382 193.365C1.99675 193.183 1.6703 192.926 1.43445 192.594C1.19861 192.259 1.06828 191.861 1.04345 191.402H2.19784C2.22018 191.678 2.30955 191.907 2.46596 192.091C2.62484 192.272 2.82717 192.408 3.07294 192.497C3.3212 192.584 3.59304 192.627 3.88846 192.627C4.21368 192.627 4.50289 192.576 4.75611 192.475C5.01182 192.37 5.21291 192.226 5.35938 192.043C5.50585 191.856 5.57908 191.639 5.57908 191.391C5.57908 191.165 5.51454 190.98 5.38544 190.836C5.25883 190.692 5.08629 190.573 4.86783 190.479C4.65185 190.384 4.40732 190.301 4.13423 190.229L3.23307 189.983C2.62236 189.817 2.13826 189.572 1.78077 189.25C1.42576 188.927 1.24826 188.5 1.24826 187.969C1.24826 187.529 1.36742 187.146 1.60575 186.818C1.84407 186.49 2.16681 186.236 2.57395 186.055C2.98109 185.871 3.44036 185.779 3.95177 185.779C4.46814 185.779 4.92369 185.87 5.31841 186.051C5.71562 186.232 6.02843 186.482 6.25682 186.799C6.48522 187.115 6.60438 187.477 6.61431 187.887H5.50461ZM10.7645 193.51V192.676L13.3451 190.002C13.6207 189.711 13.8479 189.457 14.0266 189.239C14.2078 189.018 14.3431 188.808 14.4325 188.609C14.5219 188.411 14.5666 188.2 14.5666 187.976C14.5666 187.723 14.507 187.504 14.3878 187.321C14.2687 187.135 14.106 186.992 13.9 186.893C13.6939 186.791 13.4618 186.74 13.2036 186.74C12.9306 186.74 12.6922 186.796 12.4887 186.907C12.2851 187.019 12.1287 187.177 12.0195 187.38C11.9102 187.584 11.8556 187.822 11.8556 188.095H10.7571C10.7571 187.631 10.8638 187.225 11.0773 186.878C11.2908 186.53 11.5838 186.261 11.9562 186.07C12.3285 185.876 12.7518 185.779 13.226 185.779C13.7051 185.779 14.1271 185.875 14.4921 186.066C14.8595 186.254 15.1462 186.513 15.3523 186.84C15.5583 187.166 15.6614 187.533 15.6614 187.943C15.6614 188.226 15.608 188.502 15.5012 188.773C15.397 189.044 15.2145 189.345 14.9538 189.678C14.6932 190.008 14.3307 190.409 13.8665 190.881L12.3509 192.467V192.523H15.7843V193.51H10.7645ZM19.8507 193.636C19.2623 193.634 18.7596 193.479 18.3425 193.171C17.9255 192.863 17.6065 192.415 17.3855 191.827C17.1646 191.238 17.0541 190.529 17.0541 189.7C17.0541 188.874 17.1646 188.167 17.3855 187.581C17.6089 186.996 17.9292 186.549 18.3463 186.241C18.7658 185.933 19.2673 185.779 19.8507 185.779C20.4341 185.779 20.9343 185.934 21.3514 186.245C21.7685 186.552 22.0875 186.999 22.3084 187.585C22.5318 188.169 22.6436 188.874 22.6436 189.7C22.6436 190.532 22.5331 191.242 22.3121 191.83C22.0912 192.416 21.7722 192.864 21.3551 193.175C20.938 193.482 20.4366 193.636 19.8507 193.636ZM19.8507 192.642C20.3671 192.642 20.7705 192.39 21.0609 191.886C21.3539 191.382 21.5003 190.654 21.5003 189.7C21.5003 189.067 21.4333 188.532 21.2993 188.095C21.1677 187.656 20.9778 187.323 20.7295 187.097C20.4837 186.869 20.1908 186.755 19.8507 186.755C19.3368 186.755 18.9334 187.008 18.6404 187.514C18.3475 188.021 18.1998 188.749 18.1973 189.7C18.1973 190.336 18.2631 190.873 18.3947 191.313C18.5287 191.75 18.7186 192.081 18.9644 192.307C19.2102 192.53 19.5056 192.642 19.8507 192.642ZM26.6197 193.636C26.0313 193.634 25.5286 193.479 25.1115 193.171C24.6945 192.863 24.3755 192.415 24.1545 191.827C23.9336 191.238 23.8231 190.529 23.8231 189.7C23.8231 188.874 23.9336 188.167 24.1545 187.581C24.3779 186.996 24.6982 186.549 25.1153 186.241C25.5348 185.933 26.0363 185.779 26.6197 185.779C27.2031 185.779 27.7033 185.934 28.1204 186.245C28.5375 186.552 28.8565 186.999 29.0774 187.585C29.3008 188.169 29.4126 188.874 29.4126 189.7C29.4126 190.532 29.3021 191.242 29.0811 191.83C28.8602 192.416 28.5412 192.864 28.1241 193.175C27.707 193.482 27.2056 193.636 26.6197 193.636ZM26.6197 192.642C27.1361 192.642 27.5395 192.39 27.8299 191.886C28.1229 191.382 28.2693 190.654 28.2693 189.7C28.2693 189.067 28.2023 188.532 28.0683 188.095C27.9367 187.656 27.7468 187.323 27.4985 187.097C27.2527 186.869 26.9598 186.755 26.6197 186.755C26.1058 186.755 25.7024 187.008 25.4094 187.514C25.1165 188.021 24.9688 188.749 24.9663 189.7C24.9663 190.336 25.0321 190.873 25.1637 191.313C25.2977 191.75 25.4876 192.081 25.7334 192.307C25.9792 192.53 26.2746 192.642 26.6197 192.642Z" fill="#878787"/>
<path d="M3.16418 106.379V96.8461H3.77489V106.379H3.16418ZM5.0745 99.8028C5.03478 99.4503 4.87093 99.1772 4.58296 98.9835C4.29498 98.7874 3.93253 98.6894 3.4956 98.6894C3.1828 98.6894 2.9122 98.739 2.6838 98.8383C2.45541 98.9351 2.2779 99.0692 2.15129 99.2405C2.02716 99.4093 1.9651 99.6017 1.9651 99.8177C1.9651 99.9989 2.0073 100.155 2.09171 100.287C2.1786 100.418 2.29156 100.529 2.43058 100.618C2.57209 100.705 2.72352 100.778 2.88489 100.838C3.04625 100.895 3.20141 100.942 3.35037 100.98L4.09514 101.173C4.33843 101.233 4.58792 101.313 4.84363 101.415C5.09933 101.517 5.33641 101.651 5.55488 101.817C5.77334 101.984 5.94961 102.19 6.08366 102.436C6.2202 102.681 6.28847 102.975 6.28847 103.318C6.28847 103.75 6.17676 104.134 5.95333 104.469C5.73238 104.804 5.41089 105.068 4.98886 105.262C4.5693 105.456 4.06162 105.552 3.46581 105.552C2.89482 105.552 2.40079 105.462 1.98372 105.281C1.56665 105.099 1.24019 104.842 1.00435 104.51C0.768508 104.175 0.638174 103.777 0.613348 103.318H1.76774C1.79008 103.594 1.87945 103.823 2.03585 104.007C2.19474 104.188 2.39707 104.324 2.64284 104.413C2.89109 104.5 3.16293 104.543 3.45836 104.543C3.78357 104.543 4.07279 104.492 4.32601 104.391C4.58172 104.286 4.7828 104.142 4.92927 103.959C5.07575 103.772 5.14898 103.555 5.14898 103.307C5.14898 103.081 5.08443 102.896 4.95534 102.752C4.82873 102.608 4.65619 102.489 4.43773 102.395C4.22175 102.3 3.97721 102.217 3.70413 102.145L2.80296 101.899C2.19225 101.733 1.70816 101.488 1.35067 101.166C0.995662 100.843 0.818159 100.416 0.818159 99.8847C0.818159 99.4453 0.937322 99.0617 1.17565 98.734C1.41397 98.4063 1.73671 98.1519 2.14385 97.9707C2.55098 97.787 3.01026 97.6951 3.52166 97.6951C4.03804 97.6951 4.49359 97.7857 4.88831 97.9669C5.28552 98.1482 5.59832 98.3977 5.82672 98.7154C6.05511 99.0307 6.17428 99.3932 6.18421 99.8028H5.0745ZM10.1743 103.936V103.005L13.4699 97.7994H14.2035V99.1697H13.738L11.3808 102.901V102.961H15.8978V103.936H10.1743ZM13.7901 105.426V103.653L13.7976 103.229V97.7994H14.8887V105.426H13.7901ZM19.8507 105.552C19.2623 105.55 18.7596 105.395 18.3425 105.087C17.9255 104.779 17.6065 104.331 17.3855 103.743C17.1646 103.154 17.0541 102.445 17.0541 101.616C17.0541 100.79 17.1646 100.083 17.3855 99.4974C17.6089 98.9116 17.9292 98.4647 18.3463 98.1569C18.7658 97.849 19.2673 97.6951 19.8507 97.6951C20.4341 97.6951 20.9343 97.8503 21.3514 98.1606C21.7685 98.4684 22.0875 98.9153 22.3084 99.5012C22.5318 100.085 22.6436 100.79 22.6436 101.616C22.6436 102.448 22.5331 103.158 22.3121 103.746C22.0912 104.332 21.7722 104.78 21.3551 105.091C20.938 105.398 20.4366 105.552 19.8507 105.552ZM19.8507 104.558C20.3671 104.558 20.7705 104.306 21.0609 103.802C21.3539 103.298 21.5003 102.57 21.5003 101.616C21.5003 100.983 21.4333 100.448 21.2993 100.011C21.1677 99.5719 20.9778 99.2392 20.7295 99.0133C20.4837 98.7849 20.1908 98.6707 19.8507 98.6707C19.3368 98.6707 18.9334 98.924 18.6404 99.4304C18.3475 99.9368 18.1998 100.665 18.1973 101.616C18.1973 102.252 18.2631 102.789 18.3947 103.229C18.5287 103.666 18.7186 103.997 18.9644 104.223C19.2102 104.446 19.5056 104.558 19.8507 104.558ZM26.6197 105.552C26.0313 105.55 25.5286 105.395 25.1115 105.087C24.6945 104.779 24.3755 104.331 24.1545 103.743C23.9336 103.154 23.8231 102.445 23.8231 101.616C23.8231 100.79 23.9336 100.083 24.1545 99.4974C24.3779 98.9116 24.6982 98.4647 25.1153 98.1569C25.5348 97.849 26.0363 97.6951 26.6197 97.6951C27.2031 97.6951 27.7033 97.8503 28.1204 98.1606C28.5375 98.4684 28.8565 98.9153 29.0774 99.5012C29.3008 100.085 29.4126 100.79 29.4126 101.616C29.4126 102.448 29.3021 103.158 29.0811 103.746C28.8602 104.332 28.5412 104.78 28.1241 105.091C27.707 105.398 27.2056 105.552 26.6197 105.552ZM26.6197 104.558C27.1361 104.558 27.5395 104.306 27.8299 103.802C28.1229 103.298 28.2693 102.57 28.2693 101.616C28.2693 100.983 28.2023 100.448 28.0683 100.011C27.9367 99.5719 27.7468 99.2392 27.4985 99.0133C27.2527 98.7849 26.9598 98.6707 26.6197 98.6707C26.1058 98.6707 25.7024 98.924 25.4094 99.4304C25.1165 99.9368 24.9688 100.665 24.9663 101.616C24.9663 102.252 25.0321 102.789 25.1637 103.229C25.2977 103.666 25.4876 103.997 25.7334 104.223C25.9792 104.446 26.2746 104.558 26.6197 104.558Z" fill="#878787"/>
<path d="M6.16657 238.506V228.973H6.77728V238.506H6.16657ZM8.0769 231.93C8.03718 231.577 7.87333 231.304 7.58536 231.11C7.29738 230.914 6.93493 230.816 6.498 230.816C6.18519 230.816 5.91459 230.866 5.6862 230.965C5.4578 231.062 5.2803 231.196 5.15369 231.367C5.02956 231.536 4.9675 231.729 4.9675 231.945C4.9675 232.126 5.0097 232.282 5.09411 232.414C5.181 232.545 5.29395 232.656 5.43298 232.745C5.57448 232.832 5.72592 232.905 5.88729 232.965C6.04865 233.022 6.20381 233.069 6.35277 233.106L7.09753 233.3C7.34082 233.36 7.59032 233.44 7.84602 233.542C8.10173 233.644 8.33881 233.778 8.55728 233.944C8.77574 234.111 8.952 234.317 9.08606 234.562C9.2226 234.808 9.29087 235.102 9.29087 235.445C9.29087 235.877 9.17916 236.261 8.95573 236.596C8.73478 236.931 8.41329 237.195 7.99125 237.389C7.5717 237.583 7.06402 237.679 6.4682 237.679C5.89722 237.679 5.40319 237.589 4.98612 237.408C4.56905 237.226 4.24259 236.969 4.00675 236.637C3.77091 236.302 3.64057 235.904 3.61575 235.445H4.77014C4.79248 235.721 4.88185 235.95 5.03825 236.134C5.19714 236.315 5.39946 236.45 5.64524 236.54C5.89349 236.627 6.16533 236.67 6.46076 236.67C6.78597 236.67 7.07519 236.619 7.32841 236.518C7.58411 236.413 7.7852 236.269 7.93167 236.086C8.07814 235.899 8.15138 235.682 8.15138 235.434C8.15138 235.208 8.08683 235.023 7.95774 234.879C7.83113 234.735 7.65859 234.616 7.44013 234.522C7.22414 234.427 6.97961 234.344 6.70653 234.272L5.80536 234.026C5.19465 233.86 4.71055 233.615 4.35307 233.293C3.99806 232.97 3.82056 232.543 3.82056 232.012C3.82056 231.572 3.93972 231.189 4.17805 230.861C4.41637 230.533 4.7391 230.279 5.14624 230.098C5.55338 229.914 6.01266 229.822 6.52406 229.822C7.04043 229.822 7.49598 229.913 7.89071 230.094C8.28792 230.275 8.60072 230.525 8.82912 230.842C9.05751 231.158 9.17667 231.52 9.1866 231.93H8.0769ZM16.2302 229.926V237.553H15.0759V231.081H15.0312L13.2065 232.272V231.17L15.1094 229.926H16.2302ZM20.9483 237.679C20.36 237.677 19.8573 237.522 19.4402 237.214C19.0231 236.906 18.7041 236.458 18.4832 235.87C18.2622 235.281 18.1517 234.572 18.1517 233.743C18.1517 232.917 18.2622 232.21 18.4832 231.624C18.7066 231.039 19.0268 230.592 19.4439 230.284C19.8635 229.976 20.3649 229.822 20.9483 229.822C21.5317 229.822 22.032 229.977 22.449 230.288C22.8661 230.595 23.1851 231.042 23.4061 231.628C23.6295 232.212 23.7412 232.917 23.7412 233.743C23.7412 234.575 23.6307 235.285 23.4098 235.873C23.1888 236.459 22.8698 236.907 22.4528 237.218C22.0357 237.525 21.5342 237.679 20.9483 237.679ZM20.9483 236.685C21.4647 236.685 21.8681 236.433 22.1586 235.929C22.4515 235.425 22.598 234.697 22.598 233.743C22.598 233.11 22.531 232.575 22.3969 232.138C22.2653 231.699 22.0754 231.366 21.8272 231.14C21.5814 230.912 21.2885 230.798 20.9483 230.798C20.4345 230.798 20.031 231.051 19.7381 231.557C19.4452 232.064 19.2974 232.792 19.295 233.743C19.295 234.379 19.3607 234.916 19.4923 235.356C19.6264 235.793 19.8163 236.124 20.0621 236.35C20.3078 236.573 20.6033 236.685 20.9483 236.685ZM27.7173 237.679C27.129 237.677 26.6263 237.522 26.2092 237.214C25.7921 236.906 25.4731 236.458 25.2522 235.87C25.0312 235.281 24.9207 234.572 24.9207 233.743C24.9207 232.917 25.0312 232.21 25.2522 231.624C25.4756 231.039 25.7958 230.592 26.2129 230.284C26.6325 229.976 27.1339 229.822 27.7173 229.822C28.3007 229.822 28.801 229.977 29.2181 230.288C29.6351 230.595 29.9541 231.042 30.1751 231.628C30.3985 232.212 30.5102 232.917 30.5102 233.743C30.5102 234.575 30.3997 235.285 30.1788 235.873C29.9579 236.459 29.6388 236.907 29.2218 237.218C28.8047 237.525 28.3032 237.679 27.7173 237.679ZM27.7173 236.685C28.2337 236.685 28.6371 236.433 28.9276 235.929C29.2205 235.425 29.367 234.697 29.367 233.743C29.367 233.11 29.3 232.575 29.1659 232.138C29.0343 231.699 28.8444 231.366 28.5962 231.14C28.3504 230.912 28.0575 230.798 27.7173 230.798C27.2035 230.798 26.8 231.051 26.5071 231.557C26.2142 232.064 26.0664 232.792 26.064 233.743C26.064 234.379 26.1297 234.916 26.2613 235.356C26.3954 235.793 26.5853 236.124 26.8311 236.35C27.0768 236.573 27.3723 236.685 27.7173 236.685Z" fill="#878787"/>
<path d="M90.0102 290.747V298.373H88.8559V291.901H88.8112L86.9865 293.093V291.99L88.8894 290.747H90.0102ZM92.3302 298.373L95.6593 291.789V291.733H91.8089V290.747H96.8509V291.767L93.533 298.373H92.3302ZM101.025 290.747H102.422L104.85 296.675H104.939L107.367 290.747H108.763V298.373H107.669V292.854H107.598L105.349 298.362H104.44L102.191 292.851H102.12V298.373H101.025V290.747ZM112.012 298.5C111.649 298.5 111.321 298.433 111.029 298.299C110.736 298.162 110.503 297.965 110.332 297.706C110.163 297.448 110.079 297.132 110.079 296.757C110.079 296.434 110.141 296.169 110.265 295.96C110.389 295.751 110.557 295.586 110.768 295.465C110.979 295.343 111.215 295.251 111.475 295.189C111.736 295.127 112.002 295.08 112.272 295.048C112.615 295.008 112.893 294.976 113.106 294.951C113.32 294.924 113.475 294.88 113.572 294.821C113.669 294.761 113.717 294.664 113.717 294.53V294.504C113.717 294.179 113.625 293.927 113.442 293.748C113.26 293.569 112.99 293.48 112.63 293.48C112.255 293.48 111.959 293.563 111.743 293.729C111.53 293.893 111.382 294.076 111.3 294.277L110.254 294.039C110.378 293.691 110.559 293.41 110.798 293.197C111.038 292.981 111.315 292.825 111.628 292.728C111.941 292.628 112.27 292.579 112.615 292.579C112.843 292.579 113.085 292.606 113.341 292.661C113.599 292.713 113.84 292.81 114.063 292.951C114.289 293.093 114.474 293.295 114.618 293.558C114.762 293.819 114.834 294.158 114.834 294.575V298.373H113.747V297.591H113.702C113.63 297.735 113.522 297.877 113.378 298.016C113.234 298.155 113.049 298.27 112.823 298.362C112.597 298.454 112.327 298.5 112.012 298.5ZM112.254 297.606C112.561 297.606 112.825 297.545 113.043 297.423C113.264 297.302 113.432 297.143 113.546 296.947C113.663 296.748 113.721 296.536 113.721 296.31V295.573C113.681 295.612 113.604 295.65 113.49 295.684C113.378 295.717 113.25 295.745 113.106 295.77C112.962 295.792 112.822 295.814 112.686 295.833C112.549 295.851 112.435 295.866 112.343 295.878C112.127 295.905 111.93 295.951 111.751 296.016C111.575 296.08 111.433 296.174 111.326 296.295C111.222 296.414 111.17 296.573 111.17 296.772C111.17 297.047 111.272 297.256 111.475 297.397C111.679 297.536 111.938 297.606 112.254 297.606ZM116.317 298.373V292.653H117.393V293.562H117.453C117.557 293.254 117.741 293.012 118.004 292.836C118.27 292.657 118.57 292.568 118.905 292.568C118.975 292.568 119.057 292.57 119.151 292.575C119.248 292.58 119.324 292.586 119.378 292.594V293.659C119.334 293.646 119.254 293.633 119.14 293.618C119.026 293.6 118.912 293.592 118.797 293.592C118.534 293.592 118.3 293.647 118.094 293.759C117.89 293.868 117.729 294.021 117.609 294.217C117.49 294.411 117.431 294.632 117.431 294.88V298.373H116.317Z" fill="#878787"/>
<path d="M154.748 290.747V298.373H153.594V291.901H153.549L151.725 293.093V291.99L153.628 290.747H154.748ZM159.388 298.477C158.855 298.477 158.383 298.385 157.973 298.202C157.566 298.018 157.247 297.765 157.016 297.442C156.785 297.119 156.671 296.752 156.674 296.34C156.671 296.017 156.737 295.72 156.871 295.45C157.008 295.177 157.192 294.95 157.426 294.768C157.659 294.585 157.92 294.468 158.208 294.418V294.374C157.828 294.282 157.524 294.078 157.296 293.763C157.067 293.448 156.954 293.085 156.957 292.676C156.954 292.286 157.057 291.938 157.266 291.633C157.477 291.325 157.766 291.083 158.133 290.907C158.501 290.73 158.919 290.642 159.388 290.642C159.853 290.642 160.267 290.732 160.632 290.91C160.999 291.087 161.289 291.329 161.5 291.637C161.711 291.942 161.817 292.288 161.82 292.676C161.817 293.085 161.701 293.448 161.47 293.763C161.239 294.078 160.939 294.282 160.569 294.374V294.418C160.854 294.468 161.111 294.585 161.34 294.768C161.57 294.95 161.754 295.177 161.891 295.45C162.03 295.72 162.1 296.017 162.103 296.34C162.1 296.752 161.984 297.119 161.753 297.442C161.522 297.765 161.202 298.018 160.792 298.202C160.385 298.385 159.917 298.477 159.388 298.477ZM159.388 297.535C159.704 297.535 159.977 297.483 160.208 297.379C160.438 297.272 160.617 297.124 160.744 296.936C160.87 296.744 160.935 296.521 160.937 296.265C160.935 296 160.865 295.765 160.729 295.562C160.595 295.358 160.412 295.198 160.181 295.081C159.951 294.964 159.686 294.906 159.388 294.906C159.088 294.906 158.821 294.964 158.588 295.081C158.354 295.198 158.171 295.358 158.037 295.562C157.902 295.765 157.837 296 157.839 296.265C157.837 296.521 157.898 296.744 158.022 296.936C158.148 297.124 158.328 297.272 158.562 297.379C158.795 297.483 159.071 297.535 159.388 297.535ZM159.388 293.986C159.642 293.986 159.866 293.935 160.062 293.834C160.258 293.732 160.412 293.59 160.524 293.409C160.638 293.228 160.697 293.016 160.699 292.772C160.697 292.534 160.64 292.326 160.528 292.147C160.419 291.968 160.266 291.83 160.07 291.733C159.874 291.634 159.646 291.584 159.388 291.584C159.125 291.584 158.894 291.634 158.696 291.733C158.5 291.83 158.347 291.968 158.238 292.147C158.128 292.326 158.075 292.534 158.078 292.772C158.075 293.016 158.13 293.228 158.241 293.409C158.353 293.59 158.507 293.732 158.703 293.834C158.902 293.935 159.13 293.986 159.388 293.986ZM166.316 290.747H167.713L170.141 296.675H170.23L172.658 290.747H174.055V298.373H172.96V292.854H172.889L170.64 298.362H169.731L167.482 292.851H167.411V298.373H166.316V290.747ZM177.303 298.5C176.94 298.5 176.613 298.433 176.32 298.299C176.027 298.162 175.795 297.965 175.623 297.706C175.454 297.448 175.37 297.132 175.37 296.757C175.37 296.434 175.432 296.169 175.556 295.96C175.68 295.751 175.848 295.586 176.059 295.465C176.27 295.343 176.506 295.251 176.767 295.189C177.027 295.127 177.293 295.08 177.563 295.048C177.906 295.008 178.184 294.976 178.398 294.951C178.611 294.924 178.766 294.88 178.863 294.821C178.96 294.761 179.008 294.664 179.008 294.53V294.504C179.008 294.179 178.916 293.927 178.733 293.748C178.551 293.569 178.281 293.48 177.921 293.48C177.546 293.48 177.251 293.563 177.035 293.729C176.821 293.893 176.673 294.076 176.591 294.277L175.545 294.039C175.669 293.691 175.85 293.41 176.089 293.197C176.33 292.981 176.606 292.825 176.919 292.728C177.232 292.628 177.561 292.579 177.906 292.579C178.134 292.579 178.376 292.606 178.632 292.661C178.89 292.713 179.131 292.81 179.355 292.951C179.58 293.093 179.765 293.295 179.909 293.558C180.053 293.819 180.125 294.158 180.125 294.575V298.373H179.038V297.591H178.993C178.921 297.735 178.813 297.877 178.669 298.016C178.525 298.155 178.34 298.27 178.115 298.362C177.889 298.454 177.618 298.5 177.303 298.5ZM177.545 297.606C177.853 297.606 178.116 297.545 178.334 297.423C178.555 297.302 178.723 297.143 178.837 296.947C178.954 296.748 179.012 296.536 179.012 296.31V295.573C178.972 295.612 178.895 295.65 178.781 295.684C178.669 295.717 178.542 295.745 178.398 295.77C178.254 295.792 178.113 295.814 177.977 295.833C177.84 295.851 177.726 295.866 177.634 295.878C177.418 295.905 177.221 295.951 177.042 296.016C176.866 296.08 176.724 296.174 176.618 296.295C176.513 296.414 176.461 296.573 176.461 296.772C176.461 297.047 176.563 297.256 176.767 297.397C176.97 297.536 177.23 297.606 177.545 297.606ZM181.608 298.373V292.653H182.685V293.562H182.744C182.848 293.254 183.032 293.012 183.295 292.836C183.561 292.657 183.861 292.568 184.196 292.568C184.266 292.568 184.348 292.57 184.442 292.575C184.539 292.58 184.615 292.586 184.669 292.594V293.659C184.625 293.646 184.545 293.633 184.431 293.618C184.317 293.6 184.203 293.592 184.089 293.592C183.825 293.592 183.591 293.647 183.385 293.759C183.181 293.868 183.02 294.021 182.901 294.217C182.781 294.411 182.722 294.632 182.722 294.88V298.373H181.608Z" fill="#878787"/>
<path d="M217.646 290.747V298.373H216.491V291.901H216.447L214.622 293.093V291.99L216.525 290.747H217.646ZM222.245 290.642C222.585 290.645 222.92 290.707 223.25 290.829C223.58 290.95 223.878 291.149 224.144 291.424C224.412 291.7 224.626 292.072 224.784 292.542C224.946 293.008 225.028 293.589 225.03 294.284C225.03 294.952 224.963 295.547 224.829 296.068C224.695 296.587 224.503 297.025 224.252 297.383C224.004 297.74 223.702 298.012 223.347 298.198C222.992 298.384 222.592 298.477 222.148 298.477C221.694 298.477 221.29 298.388 220.938 298.209C220.585 298.03 220.299 297.783 220.078 297.468C219.857 297.15 219.719 296.785 219.664 296.373H220.8C220.874 296.701 221.026 296.967 221.254 297.17C221.485 297.371 221.783 297.472 222.148 297.472C222.707 297.472 223.142 297.229 223.455 296.742C223.768 296.253 223.926 295.57 223.928 294.694H223.868C223.739 294.907 223.578 295.091 223.384 295.245C223.193 295.399 222.978 295.518 222.74 295.603C222.502 295.687 222.247 295.729 221.977 295.729C221.537 295.729 221.138 295.621 220.778 295.405C220.418 295.189 220.131 294.893 219.917 294.515C219.704 294.138 219.597 293.707 219.597 293.223C219.597 292.741 219.706 292.304 219.925 291.912C220.146 291.52 220.454 291.21 220.848 290.981C221.246 290.75 221.711 290.637 222.245 290.642ZM222.249 291.611C221.958 291.611 221.696 291.683 221.463 291.827C221.232 291.968 221.049 292.16 220.915 292.404C220.781 292.645 220.714 292.913 220.714 293.208C220.714 293.504 220.779 293.772 220.908 294.012C221.04 294.251 221.218 294.441 221.444 294.582C221.673 294.721 221.933 294.791 222.226 294.791C222.445 294.791 222.648 294.749 222.837 294.664C223.026 294.58 223.191 294.463 223.332 294.314C223.474 294.163 223.584 293.991 223.664 293.8C223.743 293.609 223.783 293.408 223.783 293.197C223.783 292.916 223.716 292.656 223.582 292.415C223.45 292.174 223.269 291.98 223.038 291.834C222.807 291.685 222.544 291.611 222.249 291.611ZM229.255 290.747H230.651L233.079 296.675H233.169L235.597 290.747H236.993V298.373H235.898V292.854H235.828L233.578 298.362H232.67L230.421 292.851H230.35V298.373H229.255V290.747ZM240.241 298.5C239.879 298.5 239.551 298.433 239.258 298.299C238.965 298.162 238.733 297.965 238.562 297.706C238.393 297.448 238.309 297.132 238.309 296.757C238.309 296.434 238.371 296.169 238.495 295.96C238.619 295.751 238.786 295.586 238.997 295.465C239.208 295.343 239.444 295.251 239.705 295.189C239.966 295.127 240.231 295.08 240.502 295.048C240.844 295.008 241.123 294.976 241.336 294.951C241.55 294.924 241.705 294.88 241.801 294.821C241.898 294.761 241.947 294.664 241.947 294.53V294.504C241.947 294.179 241.855 293.927 241.671 293.748C241.49 293.569 241.219 293.48 240.859 293.48C240.484 293.48 240.189 293.563 239.973 293.729C239.76 293.893 239.612 294.076 239.53 294.277L238.484 294.039C238.608 293.691 238.789 293.41 239.027 293.197C239.268 292.981 239.545 292.825 239.858 292.728C240.17 292.628 240.499 292.579 240.844 292.579C241.073 292.579 241.315 292.606 241.571 292.661C241.829 292.713 242.07 292.81 242.293 292.951C242.519 293.093 242.704 293.295 242.848 293.558C242.992 293.819 243.064 294.158 243.064 294.575V298.373H241.977V297.591H241.932C241.86 297.735 241.752 297.877 241.608 298.016C241.464 298.155 241.279 298.27 241.053 298.362C240.827 298.454 240.556 298.5 240.241 298.5ZM240.483 297.606C240.791 297.606 241.054 297.545 241.273 297.423C241.494 297.302 241.661 297.143 241.775 296.947C241.892 296.748 241.95 296.536 241.95 296.31V295.573C241.911 295.612 241.834 295.65 241.72 295.684C241.608 295.717 241.48 295.745 241.336 295.77C241.192 295.792 241.052 295.814 240.915 295.833C240.779 295.851 240.664 295.866 240.573 295.878C240.357 295.905 240.159 295.951 239.981 296.016C239.804 296.08 239.663 296.174 239.556 296.295C239.452 296.414 239.4 296.573 239.4 296.772C239.4 297.047 239.501 297.256 239.705 297.397C239.909 297.536 240.168 297.606 240.483 297.606ZM244.547 298.373V292.653H245.623V293.562H245.683C245.787 293.254 245.971 293.012 246.234 292.836C246.499 292.657 246.8 292.568 247.135 292.568C247.204 292.568 247.286 292.57 247.381 292.575C247.478 292.58 247.553 292.586 247.608 292.594V293.659C247.563 293.646 247.484 293.633 247.37 293.618C247.255 293.6 247.141 293.592 247.027 293.592C246.764 293.592 246.529 293.647 246.323 293.759C246.12 293.868 245.958 294.021 245.839 294.217C245.72 294.411 245.66 294.632 245.66 294.88V298.373H244.547Z" fill="#878787"/>
<path d="M276.833 298.373V297.539L279.414 294.865C279.689 294.575 279.916 294.32 280.095 294.102C280.276 293.881 280.412 293.671 280.501 293.472C280.59 293.274 280.635 293.063 280.635 292.839C280.635 292.586 280.576 292.368 280.456 292.184C280.337 291.998 280.175 291.855 279.969 291.756C279.763 291.654 279.53 291.603 279.272 291.603C278.999 291.603 278.761 291.659 278.557 291.771C278.354 291.882 278.197 292.04 278.088 292.244C277.979 292.447 277.924 292.686 277.924 292.959H276.826C276.826 292.494 276.932 292.088 277.146 291.741C277.359 291.393 277.652 291.124 278.025 290.933C278.397 290.739 278.82 290.642 279.295 290.642C279.774 290.642 280.196 290.738 280.561 290.929C280.928 291.118 281.215 291.376 281.421 291.704C281.627 292.029 281.73 292.396 281.73 292.806C281.73 293.089 281.677 293.366 281.57 293.636C281.466 293.907 281.283 294.209 281.022 294.541C280.762 294.871 280.399 295.272 279.935 295.744L278.419 297.33V297.386H281.853V298.373H276.833ZM285.919 298.5C285.331 298.497 284.828 298.342 284.411 298.034C283.994 297.726 283.675 297.278 283.454 296.69C283.233 296.102 283.123 295.393 283.123 294.564C283.123 293.737 283.233 293.031 283.454 292.445C283.677 291.859 283.998 291.412 284.415 291.104C284.834 290.796 285.336 290.642 285.919 290.642C286.503 290.642 287.003 290.798 287.42 291.108C287.837 291.416 288.156 291.863 288.377 292.448C288.6 293.032 288.712 293.737 288.712 294.564C288.712 295.395 288.602 296.105 288.381 296.694C288.16 297.279 287.841 297.728 287.424 298.038C287.007 298.346 286.505 298.5 285.919 298.5ZM285.919 297.505C286.436 297.505 286.839 297.253 287.129 296.749C287.422 296.245 287.569 295.517 287.569 294.564C287.569 293.931 287.502 293.396 287.368 292.959C287.236 292.519 287.046 292.187 286.798 291.961C286.552 291.732 286.259 291.618 285.919 291.618C285.405 291.618 285.002 291.871 284.709 292.378C284.416 292.884 284.268 293.613 284.266 294.564C284.266 295.199 284.332 295.737 284.463 296.176C284.597 296.613 284.787 296.944 285.033 297.17C285.279 297.394 285.574 297.505 285.919 297.505ZM292.913 290.747H294.309L296.737 296.675H296.826L299.254 290.747H300.651V298.373H299.556V292.854H299.485L297.236 298.362H296.327L294.078 292.851H294.007V298.373H292.913V290.747ZM303.899 298.5C303.536 298.5 303.209 298.433 302.916 298.299C302.623 298.162 302.391 297.965 302.219 297.706C302.051 297.448 301.966 297.132 301.966 296.757C301.966 296.434 302.028 296.169 302.152 295.96C302.277 295.751 302.444 295.586 302.655 295.465C302.866 295.343 303.102 295.251 303.363 295.189C303.623 295.127 303.889 295.08 304.16 295.048C304.502 295.008 304.78 294.976 304.994 294.951C305.207 294.924 305.362 294.88 305.459 294.821C305.556 294.761 305.604 294.664 305.604 294.53V294.504C305.604 294.179 305.513 293.927 305.329 293.748C305.148 293.569 304.877 293.48 304.517 293.48C304.142 293.48 303.847 293.563 303.631 293.729C303.417 293.893 303.27 294.076 303.188 294.277L302.141 294.039C302.265 293.691 302.447 293.41 302.685 293.197C302.926 292.981 303.203 292.825 303.515 292.728C303.828 292.628 304.157 292.579 304.502 292.579C304.731 292.579 304.973 292.606 305.228 292.661C305.486 292.713 305.727 292.81 305.951 292.951C306.177 293.093 306.362 293.295 306.506 293.558C306.65 293.819 306.722 294.158 306.722 294.575V298.373H305.634V297.591H305.589C305.517 297.735 305.409 297.877 305.266 298.016C305.122 298.155 304.937 298.27 304.711 298.362C304.485 298.454 304.214 298.5 303.899 298.5ZM304.141 297.606C304.449 297.606 304.712 297.545 304.93 297.423C305.151 297.302 305.319 297.143 305.433 296.947C305.55 296.748 305.608 296.536 305.608 296.31V295.573C305.568 295.612 305.491 295.65 305.377 295.684C305.266 295.717 305.138 295.745 304.994 295.77C304.85 295.792 304.709 295.814 304.573 295.833C304.436 295.851 304.322 295.866 304.23 295.878C304.014 295.905 303.817 295.951 303.638 296.016C303.462 296.08 303.32 296.174 303.214 296.295C303.109 296.414 303.057 296.573 303.057 296.772C303.057 297.047 303.159 297.256 303.363 297.397C303.566 297.536 303.826 297.606 304.141 297.606ZM308.205 298.373V292.653H309.281V293.562H309.34C309.445 293.254 309.628 293.012 309.891 292.836C310.157 292.657 310.457 292.568 310.793 292.568C310.862 292.568 310.944 292.57 311.038 292.575C311.135 292.58 311.211 292.586 311.266 292.594V293.659C311.221 293.646 311.141 293.633 311.027 293.618C310.913 293.6 310.799 293.592 310.685 293.592C310.421 293.592 310.187 293.647 309.981 293.759C309.777 293.868 309.616 294.021 309.497 294.217C309.378 294.411 309.318 294.632 309.318 294.88V298.373H308.205Z" fill="#878787"/>
<path d="M341.755 298.373V297.539L344.336 294.865C344.611 294.575 344.838 294.32 345.017 294.102C345.198 293.881 345.334 293.671 345.423 293.472C345.512 293.274 345.557 293.063 345.557 292.839C345.557 292.586 345.497 292.368 345.378 292.184C345.259 291.998 345.097 291.855 344.89 291.756C344.684 291.654 344.452 291.603 344.194 291.603C343.921 291.603 343.683 291.659 343.479 291.771C343.276 291.882 343.119 292.04 343.01 292.244C342.901 292.447 342.846 292.686 342.846 292.959H341.748C341.748 292.494 341.854 292.088 342.068 291.741C342.281 291.393 342.574 291.124 342.947 290.933C343.319 290.739 343.742 290.642 344.216 290.642C344.696 290.642 345.118 290.738 345.483 290.929C345.85 291.118 346.137 291.376 346.343 291.704C346.549 292.029 346.652 292.396 346.652 292.806C346.652 293.089 346.598 293.366 346.492 293.636C346.387 293.907 346.205 294.209 345.944 294.541C345.684 294.871 345.321 295.272 344.857 295.744L343.341 297.33V297.386H346.775V298.373H341.755ZM351.079 290.747V298.373H349.925V291.901H349.88L348.056 293.093V291.99L349.959 290.747H351.079ZM356.022 290.747H357.418L359.846 296.675H359.936L362.364 290.747H363.76V298.373H362.665V292.854H362.595L360.345 298.362H359.437L357.188 292.851H357.117V298.373H356.022V290.747ZM367.008 298.5C366.646 298.5 366.318 298.433 366.025 298.299C365.732 298.162 365.5 297.965 365.329 297.706C365.16 297.448 365.076 297.132 365.076 296.757C365.076 296.434 365.138 296.169 365.262 295.96C365.386 295.751 365.553 295.586 365.764 295.465C365.975 295.343 366.211 295.251 366.472 295.189C366.733 295.127 366.998 295.08 367.269 295.048C367.611 295.008 367.89 294.976 368.103 294.951C368.317 294.924 368.472 294.88 368.568 294.821C368.665 294.761 368.714 294.664 368.714 294.53V294.504C368.714 294.179 368.622 293.927 368.438 293.748C368.257 293.569 367.986 293.48 367.626 293.48C367.251 293.48 366.956 293.563 366.74 293.729C366.527 293.893 366.379 294.076 366.297 294.277L365.251 294.039C365.375 293.691 365.556 293.41 365.794 293.197C366.035 292.981 366.312 292.825 366.625 292.728C366.937 292.628 367.266 292.579 367.611 292.579C367.84 292.579 368.082 292.606 368.338 292.661C368.596 292.713 368.837 292.81 369.06 292.951C369.286 293.093 369.471 293.295 369.615 293.558C369.759 293.819 369.831 294.158 369.831 294.575V298.373H368.744V297.591H368.699C368.627 297.735 368.519 297.877 368.375 298.016C368.231 298.155 368.046 298.27 367.82 298.362C367.594 298.454 367.323 298.5 367.008 298.5ZM367.25 297.606C367.558 297.606 367.821 297.545 368.04 297.423C368.261 297.302 368.428 297.143 368.542 296.947C368.659 296.748 368.717 296.536 368.717 296.31V295.573C368.678 295.612 368.601 295.65 368.487 295.684C368.375 295.717 368.247 295.745 368.103 295.77C367.959 295.792 367.819 295.814 367.682 295.833C367.546 295.851 367.431 295.866 367.34 295.878C367.124 295.905 366.926 295.951 366.748 296.016C366.571 296.08 366.43 296.174 366.323 296.295C366.219 296.414 366.167 296.573 366.167 296.772C366.167 297.047 366.268 297.256 366.472 297.397C366.676 297.536 366.935 297.606 367.25 297.606ZM371.314 298.373V292.653H372.39V293.562H372.45C372.554 293.254 372.738 293.012 373.001 292.836C373.266 292.657 373.567 292.568 373.902 292.568C373.971 292.568 374.053 292.57 374.148 292.575C374.245 292.58 374.32 292.586 374.375 292.594V293.659C374.33 293.646 374.251 293.633 374.137 293.618C374.022 293.6 373.908 293.592 373.794 293.592C373.531 293.592 373.296 293.647 373.09 293.759C372.887 293.868 372.725 294.021 372.606 294.217C372.487 294.411 372.427 294.632 372.427 294.88V298.373H371.314Z" fill="#878787"/>
<path d="M402.838 298.373V297.539L405.419 294.865C405.694 294.575 405.921 294.32 406.1 294.102C406.281 293.881 406.417 293.671 406.506 293.472C406.595 293.274 406.64 293.063 406.64 292.839C406.64 292.586 406.58 292.368 406.461 292.184C406.342 291.998 406.18 291.855 405.973 291.756C405.767 291.654 405.535 291.603 405.277 291.603C405.004 291.603 404.766 291.659 404.562 291.771C404.359 291.882 404.202 292.04 404.093 292.244C403.984 292.447 403.929 292.686 403.929 292.959H402.831C402.831 292.494 402.937 292.088 403.151 291.741C403.364 291.393 403.657 291.124 404.03 290.933C404.402 290.739 404.825 290.642 405.299 290.642C405.779 290.642 406.201 290.738 406.566 290.929C406.933 291.118 407.22 291.376 407.426 291.704C407.632 292.029 407.735 292.396 407.735 292.806C407.735 293.089 407.681 293.366 407.575 293.636C407.47 293.907 407.288 294.209 407.027 294.541C406.767 294.871 406.404 295.272 405.94 295.744L404.424 297.33V297.386H407.858V298.373H402.838ZM409.269 298.373V297.539L411.85 294.865C412.125 294.575 412.352 294.32 412.531 294.102C412.712 293.881 412.848 293.671 412.937 293.472C413.026 293.274 413.071 293.063 413.071 292.839C413.071 292.586 413.012 292.368 412.892 292.184C412.773 291.998 412.611 291.855 412.405 291.756C412.198 291.654 411.966 291.603 411.708 291.603C411.435 291.603 411.197 291.659 410.993 291.771C410.79 291.882 410.633 292.04 410.524 292.244C410.415 292.447 410.36 292.686 410.36 292.959H409.262C409.262 292.494 409.368 292.088 409.582 291.741C409.795 291.393 410.088 291.124 410.461 290.933C410.833 290.739 411.256 290.642 411.731 290.642C412.21 290.642 412.632 290.738 412.997 290.929C413.364 291.118 413.651 291.376 413.857 291.704C414.063 292.029 414.166 292.396 414.166 292.806C414.166 293.089 414.113 293.366 414.006 293.636C413.902 293.907 413.719 294.209 413.458 294.541C413.198 294.871 412.835 295.272 412.371 295.744L410.855 297.33V297.386H414.289V298.373H409.269ZM418.58 290.747H419.976L422.404 296.675H422.493L424.921 290.747H426.318V298.373H425.223V292.854H425.152L422.903 298.362H421.994L419.745 292.851H419.674V298.373H418.58V290.747ZM429.566 298.5C429.203 298.5 428.876 298.433 428.583 298.299C428.29 298.162 428.058 297.965 427.886 297.706C427.718 297.448 427.633 297.132 427.633 296.757C427.633 296.434 427.695 296.169 427.819 295.96C427.943 295.751 428.111 295.586 428.322 295.465C428.533 295.343 428.769 295.251 429.03 295.189C429.29 295.127 429.556 295.08 429.826 295.048C430.169 295.008 430.447 294.976 430.661 294.951C430.874 294.924 431.029 294.88 431.126 294.821C431.223 294.761 431.271 294.664 431.271 294.53V294.504C431.271 294.179 431.179 293.927 430.996 293.748C430.815 293.569 430.544 293.48 430.184 293.48C429.809 293.48 429.514 293.563 429.298 293.729C429.084 293.893 428.936 294.076 428.855 294.277L427.808 294.039C427.932 293.691 428.114 293.41 428.352 293.197C428.593 292.981 428.869 292.825 429.182 292.728C429.495 292.628 429.824 292.579 430.169 292.579C430.397 292.579 430.64 292.606 430.895 292.661C431.153 292.713 431.394 292.81 431.618 292.951C431.844 293.093 432.029 293.295 432.173 293.558C432.316 293.819 432.388 294.158 432.388 294.575V298.373H431.301V297.591H431.256C431.184 297.735 431.076 297.877 430.932 298.016C430.788 298.155 430.604 298.27 430.378 298.362C430.152 298.454 429.881 298.5 429.566 298.5ZM429.808 297.606C430.116 297.606 430.379 297.545 430.597 297.423C430.818 297.302 430.986 297.143 431.1 296.947C431.217 296.748 431.275 296.536 431.275 296.31V295.573C431.235 295.612 431.158 295.65 431.044 295.684C430.932 295.717 430.805 295.745 430.661 295.77C430.517 295.792 430.376 295.814 430.24 295.833C430.103 295.851 429.989 295.866 429.897 295.878C429.681 295.905 429.484 295.951 429.305 296.016C429.129 296.08 428.987 296.174 428.881 296.295C428.776 296.414 428.724 296.573 428.724 296.772C428.724 297.047 428.826 297.256 429.03 297.397C429.233 297.536 429.493 297.606 429.808 297.606ZM433.872 298.373V292.653H434.948V293.562H435.007C435.112 293.254 435.295 293.012 435.558 292.836C435.824 292.657 436.124 292.568 436.46 292.568C436.529 292.568 436.611 292.57 436.705 292.575C436.802 292.58 436.878 292.586 436.933 292.594V293.659C436.888 293.646 436.808 293.633 436.694 293.618C436.58 293.6 436.466 293.592 436.352 293.592C436.088 293.592 435.854 293.647 435.648 293.759C435.444 293.868 435.283 294.021 435.164 294.217C435.045 294.411 434.985 294.632 434.985 294.88V298.373H433.872Z" fill="#878787"/>
<path d="M466.641 298.373V297.539L469.222 294.865C469.497 294.575 469.724 294.32 469.903 294.102C470.084 293.881 470.22 293.671 470.309 293.472C470.398 293.274 470.443 293.063 470.443 292.839C470.443 292.586 470.383 292.368 470.264 292.184C470.145 291.998 469.982 291.855 469.776 291.756C469.57 291.654 469.338 291.603 469.08 291.603C468.807 291.603 468.569 291.659 468.365 291.771C468.162 291.882 468.005 292.04 467.896 292.244C467.787 292.447 467.732 292.686 467.732 292.959H466.633C466.633 292.494 466.74 292.088 466.954 291.741C467.167 291.393 467.46 291.124 467.833 290.933C468.205 290.739 468.628 290.642 469.102 290.642C469.582 290.642 470.004 290.738 470.369 290.929C470.736 291.118 471.023 291.376 471.229 291.704C471.435 292.029 471.538 292.396 471.538 292.806C471.538 293.089 471.484 293.366 471.378 293.636C471.273 293.907 471.091 294.209 470.83 294.541C470.57 294.871 470.207 295.272 469.743 295.744L468.227 297.33V297.386H471.661V298.373H466.641ZM475.727 298.477C475.216 298.477 474.759 298.389 474.357 298.213C473.957 298.037 473.641 297.792 473.407 297.479C473.176 297.164 473.052 296.799 473.035 296.385H474.204C474.219 296.61 474.295 296.807 474.431 296.973C474.57 297.137 474.751 297.263 474.975 297.353C475.198 297.442 475.447 297.487 475.72 297.487C476.02 297.487 476.286 297.435 476.517 297.33C476.75 297.226 476.932 297.081 477.064 296.895C477.196 296.706 477.261 296.489 477.261 296.243C477.261 295.987 477.196 295.763 477.064 295.569C476.935 295.373 476.745 295.219 476.494 295.107C476.246 294.996 475.946 294.94 475.593 294.94H474.949V294.001H475.593C475.876 294.001 476.124 293.95 476.338 293.849C476.554 293.747 476.723 293.605 476.844 293.424C476.966 293.24 477.027 293.026 477.027 292.78C477.027 292.544 476.973 292.339 476.867 292.165C476.762 291.989 476.613 291.851 476.42 291.752C476.229 291.653 476.003 291.603 475.742 291.603C475.494 291.603 475.262 291.649 475.046 291.741C474.832 291.83 474.658 291.959 474.524 292.128C474.39 292.295 474.318 292.494 474.308 292.728H473.195C473.207 292.316 473.329 291.953 473.56 291.64C473.793 291.328 474.101 291.083 474.483 290.907C474.866 290.73 475.29 290.642 475.757 290.642C476.246 290.642 476.668 290.738 477.023 290.929C477.38 291.118 477.656 291.37 477.85 291.685C478.046 292 478.143 292.345 478.14 292.72C478.143 293.147 478.023 293.51 477.783 293.808C477.544 294.106 477.227 294.305 476.829 294.407V294.467C477.336 294.544 477.728 294.745 478.006 295.07C478.287 295.395 478.426 295.799 478.423 296.28C478.426 296.7 478.309 297.076 478.073 297.409C477.84 297.741 477.521 298.003 477.116 298.194C476.711 298.383 476.248 298.477 475.727 298.477ZM482.71 290.747H484.107L486.535 296.675H486.624L489.052 290.747H490.448V298.373H489.354V292.854H489.283L487.034 298.362H486.125L483.876 292.851H483.805V298.373H482.71V290.747ZM493.696 298.5C493.334 298.5 493.006 298.433 492.713 298.299C492.42 298.162 492.188 297.965 492.017 297.706C491.848 297.448 491.764 297.132 491.764 296.757C491.764 296.434 491.826 296.169 491.95 295.96C492.074 295.751 492.242 295.586 492.453 295.465C492.664 295.343 492.9 295.251 493.16 295.189C493.421 295.127 493.687 295.08 493.957 295.048C494.3 295.008 494.578 294.976 494.791 294.951C495.005 294.924 495.16 294.88 495.257 294.821C495.354 294.761 495.402 294.664 495.402 294.53V294.504C495.402 294.179 495.31 293.927 495.126 293.748C494.945 293.569 494.675 293.48 494.315 293.48C493.94 293.48 493.644 293.563 493.428 293.729C493.215 293.893 493.067 294.076 492.985 294.277L491.939 294.039C492.063 293.691 492.244 293.41 492.483 293.197C492.723 292.981 493 292.825 493.313 292.728C493.626 292.628 493.955 292.579 494.3 292.579C494.528 292.579 494.77 292.606 495.026 292.661C495.284 292.713 495.525 292.81 495.748 292.951C495.974 293.093 496.159 293.295 496.303 293.558C496.447 293.819 496.519 294.158 496.519 294.575V298.373H495.432V297.591H495.387C495.315 297.735 495.207 297.877 495.063 298.016C494.919 298.155 494.734 298.27 494.508 298.362C494.282 298.454 494.012 298.5 493.696 298.5ZM493.939 297.606C494.246 297.606 494.51 297.545 494.728 297.423C494.949 297.302 495.116 297.143 495.231 296.947C495.347 296.748 495.406 296.536 495.406 296.31V295.573C495.366 295.612 495.289 295.65 495.175 295.684C495.063 295.717 494.935 295.745 494.791 295.77C494.647 295.792 494.507 295.814 494.37 295.833C494.234 295.851 494.12 295.866 494.028 295.878C493.812 295.905 493.615 295.951 493.436 296.016C493.26 296.08 493.118 296.174 493.011 296.295C492.907 296.414 492.855 296.573 492.855 296.772C492.855 297.047 492.957 297.256 493.16 297.397C493.364 297.536 493.623 297.606 493.939 297.606ZM498.002 298.373V292.653H499.078V293.562H499.138C499.242 293.254 499.426 293.012 499.689 292.836C499.955 292.657 500.255 292.568 500.59 292.568C500.66 292.568 500.742 292.57 500.836 292.575C500.933 292.58 501.009 292.586 501.063 292.594V293.659C501.018 293.646 500.939 293.633 500.825 293.618C500.711 293.6 500.596 293.592 500.482 293.592C500.219 293.592 499.984 293.647 499.778 293.759C499.575 293.868 499.413 294.021 499.294 294.217C499.175 294.411 499.116 294.632 499.116 294.88V298.373H498.002Z" fill="#878787"/>
<path d="M529.59 298.373V297.539L532.17 294.865C532.446 294.575 532.673 294.32 532.852 294.102C533.033 293.881 533.168 293.671 533.258 293.472C533.347 293.274 533.392 293.063 533.392 292.839C533.392 292.586 533.332 292.368 533.213 292.184C533.094 291.998 532.931 291.855 532.725 291.756C532.519 291.654 532.287 291.603 532.029 291.603C531.756 291.603 531.517 291.659 531.314 291.771C531.11 291.882 530.954 292.04 530.845 292.244C530.735 292.447 530.681 292.686 530.681 292.959H529.582C529.582 292.494 529.689 292.088 529.902 291.741C530.116 291.393 530.409 291.124 530.781 290.933C531.154 290.739 531.577 290.642 532.051 290.642C532.53 290.642 532.952 290.738 533.317 290.929C533.685 291.118 533.971 291.376 534.177 291.704C534.383 292.029 534.486 292.396 534.486 292.806C534.486 293.089 534.433 293.366 534.326 293.636C534.222 293.907 534.04 294.209 533.779 294.541C533.518 294.871 533.156 295.272 532.692 295.744L531.176 297.33V297.386H534.609V298.373H529.59ZM535.697 296.884V295.953L538.992 290.747H539.726V292.117H539.26L536.903 295.848V295.908H541.42V296.884H535.697ZM539.313 298.373V296.601L539.32 296.176V290.747H540.411V298.373H539.313ZM545.597 290.747H546.994L549.422 296.675H549.511L551.939 290.747H553.336V298.373H552.241V292.854H552.17L549.921 298.362H549.012L546.763 292.851H546.692V298.373H545.597V290.747ZM556.584 298.5C556.221 298.5 555.894 298.433 555.601 298.299C555.308 298.162 555.076 297.965 554.904 297.706C554.735 297.448 554.651 297.132 554.651 296.757C554.651 296.434 554.713 296.169 554.837 295.96C554.961 295.751 555.129 295.586 555.34 295.465C555.551 295.343 555.787 295.251 556.047 295.189C556.308 295.127 556.574 295.08 556.844 295.048C557.187 295.008 557.465 294.976 557.679 294.951C557.892 294.924 558.047 294.88 558.144 294.821C558.241 294.761 558.289 294.664 558.289 294.53V294.504C558.289 294.179 558.197 293.927 558.014 293.748C557.832 293.569 557.562 293.48 557.202 293.48C556.827 293.48 556.532 293.563 556.316 293.729C556.102 293.893 555.954 294.076 555.872 294.277L554.826 294.039C554.95 293.691 555.131 293.41 555.37 293.197C555.611 292.981 555.887 292.825 556.2 292.728C556.513 292.628 556.842 292.579 557.187 292.579C557.415 292.579 557.657 292.606 557.913 292.661C558.171 292.713 558.412 292.81 558.636 292.951C558.861 293.093 559.046 293.295 559.19 293.558C559.334 293.819 559.406 294.158 559.406 294.575V298.373H558.319V297.591H558.274C558.202 297.735 558.094 297.877 557.95 298.016C557.806 298.155 557.621 298.27 557.396 298.362C557.17 298.454 556.899 298.5 556.584 298.5ZM556.826 297.606C557.134 297.606 557.397 297.545 557.615 297.423C557.836 297.302 558.004 297.143 558.118 296.947C558.235 296.748 558.293 296.536 558.293 296.31V295.573C558.253 295.612 558.176 295.65 558.062 295.684C557.95 295.717 557.823 295.745 557.679 295.77C557.535 295.792 557.394 295.814 557.258 295.833C557.121 295.851 557.007 295.866 556.915 295.878C556.699 295.905 556.502 295.951 556.323 296.016C556.147 296.08 556.005 296.174 555.899 296.295C555.794 296.414 555.742 296.573 555.742 296.772C555.742 297.047 555.844 297.256 556.047 297.397C556.251 297.536 556.51 297.606 556.826 297.606ZM560.889 298.373V292.653H561.966V293.562H562.025C562.129 293.254 562.313 293.012 562.576 292.836C562.842 292.657 563.142 292.568 563.477 292.568C563.547 292.568 563.629 292.57 563.723 292.575C563.82 292.58 563.896 292.586 563.95 292.594V293.659C563.906 293.646 563.826 293.633 563.712 293.618C563.598 293.6 563.484 293.592 563.369 293.592C563.106 293.592 562.872 293.647 562.666 293.759C562.462 293.868 562.301 294.021 562.182 294.217C562.062 294.411 562.003 294.632 562.003 294.88V298.373H560.889Z" fill="#878787"/>
<path d="M592.605 298.373V297.539L595.186 294.865C595.461 294.575 595.688 294.32 595.867 294.102C596.048 293.881 596.183 293.671 596.273 293.472C596.362 293.274 596.407 293.063 596.407 292.839C596.407 292.586 596.347 292.368 596.228 292.184C596.109 291.998 595.946 291.855 595.74 291.756C595.534 291.654 595.302 291.603 595.044 291.603C594.771 291.603 594.533 291.659 594.329 291.771C594.125 291.882 593.969 292.04 593.86 292.244C593.751 292.447 593.696 292.686 593.696 292.959H592.597C592.597 292.494 592.704 292.088 592.918 291.741C593.131 291.393 593.424 291.124 593.797 290.933C594.169 290.739 594.592 290.642 595.066 290.642C595.545 290.642 595.968 290.738 596.332 290.929C596.7 291.118 596.987 291.376 597.193 291.704C597.399 292.029 597.502 292.396 597.502 292.806C597.502 293.089 597.448 293.366 597.342 293.636C597.237 293.907 597.055 294.209 596.794 294.541C596.534 294.871 596.171 295.272 595.707 295.744L594.191 297.33V297.386H597.625V298.373H592.605ZM601.553 298.477C601.087 298.477 600.667 298.388 600.295 298.209C599.925 298.028 599.629 297.78 599.408 297.464C599.187 297.149 599.069 296.789 599.055 296.385H600.172C600.199 296.712 600.344 296.982 600.607 297.193C600.871 297.404 601.186 297.509 601.553 297.509C601.846 297.509 602.106 297.442 602.332 297.308C602.56 297.171 602.739 296.984 602.868 296.746C602.999 296.507 603.065 296.236 603.065 295.93C603.065 295.62 602.998 295.343 602.864 295.1C602.73 294.857 602.545 294.665 602.309 294.526C602.076 294.387 601.808 294.317 601.505 294.314C601.274 294.314 601.042 294.354 600.808 294.433C600.575 294.513 600.386 294.617 600.242 294.746L599.189 294.59L599.617 290.747H603.81V291.733H600.574L600.332 293.867H600.377C600.525 293.723 600.723 293.603 600.969 293.506C601.217 293.409 601.483 293.361 601.766 293.361C602.23 293.361 602.643 293.471 603.006 293.692C603.37 293.913 603.657 294.215 603.866 294.597C604.077 294.977 604.181 295.414 604.179 295.908C604.181 296.402 604.069 296.843 603.843 297.23C603.62 297.617 603.31 297.922 602.912 298.146C602.518 298.367 602.065 298.477 601.553 298.477ZM608.418 290.747H609.815L612.243 296.675H612.332L614.76 290.747H616.156V298.373H615.061V292.854H614.991L612.742 298.362H611.833L609.584 292.851H609.513V298.373H608.418V290.747ZM619.404 298.5C619.042 298.5 618.714 298.433 618.421 298.299C618.128 298.162 617.896 297.965 617.725 297.706C617.556 297.448 617.472 297.132 617.472 296.757C617.472 296.434 617.534 296.169 617.658 295.96C617.782 295.751 617.95 295.586 618.161 295.465C618.372 295.343 618.608 295.251 618.868 295.189C619.129 295.127 619.394 295.08 619.665 295.048C620.008 295.008 620.286 294.976 620.499 294.951C620.713 294.924 620.868 294.88 620.965 294.821C621.062 294.761 621.11 294.664 621.11 294.53V294.504C621.11 294.179 621.018 293.927 620.834 293.748C620.653 293.569 620.383 293.48 620.023 293.48C619.648 293.48 619.352 293.563 619.136 293.729C618.923 293.893 618.775 294.076 618.693 294.277L617.647 294.039C617.771 293.691 617.952 293.41 618.19 293.197C618.431 292.981 618.708 292.825 619.021 292.728C619.334 292.628 619.663 292.579 620.008 292.579C620.236 292.579 620.478 292.606 620.734 292.661C620.992 292.713 621.233 292.81 621.456 292.951C621.682 293.093 621.867 293.295 622.011 293.558C622.155 293.819 622.227 294.158 622.227 294.575V298.373H621.14V297.591H621.095C621.023 297.735 620.915 297.877 620.771 298.016C620.627 298.155 620.442 298.27 620.216 298.362C619.99 298.454 619.72 298.5 619.404 298.5ZM619.646 297.606C619.954 297.606 620.217 297.545 620.436 297.423C620.657 297.302 620.824 297.143 620.939 296.947C621.055 296.748 621.114 296.536 621.114 296.31V295.573C621.074 295.612 620.997 295.65 620.883 295.684C620.771 295.717 620.643 295.745 620.499 295.77C620.355 295.792 620.215 295.814 620.078 295.833C619.942 295.851 619.828 295.866 619.736 295.878C619.52 295.905 619.322 295.951 619.144 296.016C618.967 296.08 618.826 296.174 618.719 296.295C618.615 296.414 618.563 296.573 618.563 296.772C618.563 297.047 618.665 297.256 618.868 297.397C619.072 297.536 619.331 297.606 619.646 297.606ZM623.71 298.373V292.653H624.786V293.562H624.846C624.95 293.254 625.134 293.012 625.397 292.836C625.663 292.657 625.963 292.568 626.298 292.568C626.368 292.568 626.45 292.57 626.544 292.575C626.641 292.58 626.716 292.586 626.771 292.594V293.659C626.726 293.646 626.647 293.633 626.533 293.618C626.419 293.6 626.304 293.592 626.19 293.592C625.927 293.592 625.692 293.647 625.486 293.759C625.283 293.868 625.121 294.021 625.002 294.217C624.883 294.411 624.824 294.632 624.824 294.88V298.373H623.71Z" fill="#878787"/>
<path d="M655.441 298.373V297.539L658.022 294.865C658.297 294.575 658.524 294.32 658.703 294.102C658.884 293.881 659.02 293.671 659.109 293.472C659.198 293.274 659.243 293.063 659.243 292.839C659.243 292.586 659.183 292.368 659.064 292.184C658.945 291.998 658.782 291.855 658.576 291.756C658.37 291.654 658.138 291.603 657.88 291.603C657.607 291.603 657.369 291.659 657.165 291.771C656.961 291.882 656.805 292.04 656.696 292.244C656.587 292.447 656.532 292.686 656.532 292.959H655.433C655.433 292.494 655.54 292.088 655.754 291.741C655.967 291.393 656.26 291.124 656.633 290.933C657.005 290.739 657.428 290.642 657.902 290.642C658.382 290.642 658.804 290.738 659.168 290.929C659.536 291.118 659.823 291.376 660.029 291.704C660.235 292.029 660.338 292.396 660.338 292.806C660.338 293.089 660.284 293.366 660.178 293.636C660.073 293.907 659.891 294.209 659.63 294.541C659.37 294.871 659.007 295.272 658.543 295.744L657.027 297.33V297.386H660.461V298.373H655.441ZM664.535 298.477C664.194 298.472 663.859 298.41 663.529 298.291C663.201 298.172 662.903 297.973 662.635 297.695C662.367 297.417 662.153 297.044 661.991 296.574C661.832 296.105 661.753 295.519 661.753 294.817C661.753 294.151 661.819 293.561 661.95 293.044C662.084 292.528 662.277 292.092 662.527 291.737C662.778 291.38 663.081 291.108 663.436 290.922C663.791 290.735 664.189 290.642 664.631 290.642C665.086 290.642 665.489 290.732 665.842 290.91C666.194 291.089 666.48 291.336 666.698 291.652C666.919 291.967 667.059 292.326 667.119 292.728H665.983C665.906 292.41 665.753 292.151 665.525 291.949C665.297 291.748 664.999 291.648 664.631 291.648C664.073 291.648 663.637 291.891 663.324 292.378C663.014 292.864 662.858 293.541 662.855 294.407H662.911C663.043 294.191 663.204 294.007 663.395 293.856C663.589 293.702 663.805 293.584 664.043 293.502C664.284 293.418 664.537 293.376 664.803 293.376C665.245 293.376 665.644 293.484 666.002 293.7C666.362 293.913 666.648 294.209 666.862 294.586C667.075 294.963 667.182 295.395 667.182 295.882C667.182 296.368 667.072 296.809 666.851 297.204C666.632 297.598 666.324 297.911 665.927 298.142C665.53 298.371 665.066 298.482 664.535 298.477ZM664.531 297.509C664.824 297.509 665.086 297.437 665.317 297.293C665.547 297.149 665.73 296.956 665.864 296.712C665.998 296.469 666.065 296.197 666.065 295.897C666.065 295.604 665.999 295.337 665.868 295.096C665.739 294.855 665.56 294.664 665.331 294.523C665.106 294.381 664.847 294.31 664.557 294.31C664.336 294.31 664.131 294.353 663.942 294.437C663.756 294.521 663.592 294.638 663.451 294.787C663.309 294.936 663.198 295.107 663.116 295.301C663.036 295.492 662.997 295.694 662.997 295.908C662.997 296.193 663.062 296.458 663.194 296.701C663.328 296.944 663.51 297.14 663.741 297.289C663.975 297.436 664.238 297.509 664.531 297.509ZM671.418 290.747H672.814L675.242 296.675H675.332L677.76 290.747H679.156V298.373H678.061V292.854H677.991L675.741 298.362H674.833L672.584 292.851H672.513V298.373H671.418V290.747ZM682.404 298.5C682.042 298.5 681.714 298.433 681.421 298.299C681.128 298.162 680.896 297.965 680.725 297.706C680.556 297.448 680.472 297.132 680.472 296.757C680.472 296.434 680.534 296.169 680.658 295.96C680.782 295.751 680.95 295.586 681.161 295.465C681.372 295.343 681.607 295.251 681.868 295.189C682.129 295.127 682.394 295.08 682.665 295.048C683.008 295.008 683.286 294.976 683.499 294.951C683.713 294.924 683.868 294.88 683.965 294.821C684.061 294.761 684.11 294.664 684.11 294.53V294.504C684.11 294.179 684.018 293.927 683.834 293.748C683.653 293.569 683.382 293.48 683.022 293.48C682.648 293.48 682.352 293.563 682.136 293.729C681.923 293.893 681.775 294.076 681.693 294.277L680.647 294.039C680.771 293.691 680.952 293.41 681.19 293.197C681.431 292.981 681.708 292.825 682.021 292.728C682.334 292.628 682.662 292.579 683.008 292.579C683.236 292.579 683.478 292.606 683.734 292.661C683.992 292.713 684.233 292.81 684.456 292.951C684.682 293.093 684.867 293.295 685.011 293.558C685.155 293.819 685.227 294.158 685.227 294.575V298.373H684.14V297.591H684.095C684.023 297.735 683.915 297.877 683.771 298.016C683.627 298.155 683.442 298.27 683.216 298.362C682.99 298.454 682.72 298.5 682.404 298.5ZM682.646 297.606C682.954 297.606 683.217 297.545 683.436 297.423C683.657 297.302 683.824 297.143 683.939 296.947C684.055 296.748 684.114 296.536 684.114 296.31V295.573C684.074 295.612 683.997 295.65 683.883 295.684C683.771 295.717 683.643 295.745 683.499 295.77C683.355 295.792 683.215 295.814 683.078 295.833C682.942 295.851 682.828 295.866 682.736 295.878C682.52 295.905 682.322 295.951 682.144 296.016C681.967 296.08 681.826 296.174 681.719 296.295C681.615 296.414 681.563 296.573 681.563 296.772C681.563 297.047 681.664 297.256 681.868 297.397C682.072 297.536 682.331 297.606 682.646 297.606ZM686.71 298.373V292.653H687.786V293.562H687.846C687.95 293.254 688.134 293.012 688.397 292.836C688.663 292.657 688.963 292.568 689.298 292.568C689.368 292.568 689.449 292.57 689.544 292.575C689.641 292.58 689.716 292.586 689.771 292.594V293.659C689.726 293.646 689.647 293.633 689.533 293.618C689.418 293.6 689.304 293.592 689.19 293.592C688.927 293.592 688.692 293.647 688.486 293.759C688.283 293.868 688.121 294.021 688.002 294.217C687.883 294.411 687.823 294.632 687.823 294.88V298.373H686.71Z" fill="#878787"/>
<rect width="46.5836" height="23" transform="translate(649 68)" fill="#AD2809"/>
<path d="M658.887 85.0909V74.1818H659.586V85.0909H658.887ZM661.073 77.5653C661.028 77.1619 660.84 76.8494 660.511 76.6278C660.181 76.4034 659.766 76.2912 659.266 76.2912C658.908 76.2912 658.599 76.348 658.337 76.4616C658.076 76.5724 657.873 76.7259 657.728 76.9219C657.586 77.1151 657.515 77.3352 657.515 77.5824C657.515 77.7898 657.563 77.9687 657.66 78.1193C657.759 78.2699 657.889 78.3963 658.048 78.4986C658.21 78.598 658.383 78.6818 658.568 78.75C658.752 78.8153 658.93 78.8693 659.1 78.9119L659.953 79.1335C660.231 79.2017 660.516 79.294 660.809 79.4105C661.102 79.527 661.373 79.6804 661.623 79.8707C661.873 80.0611 662.075 80.2969 662.228 80.5781C662.384 80.8594 662.462 81.196 662.462 81.5881C662.462 82.0824 662.335 82.5213 662.079 82.9048C661.826 83.2884 661.458 83.5909 660.975 83.8125C660.495 84.0341 659.914 84.1449 659.232 84.1449C658.579 84.1449 658.014 84.0412 657.536 83.8338C657.059 83.6264 656.685 83.3324 656.416 82.9517C656.146 82.5682 655.997 82.1136 655.968 81.5881H657.289C657.315 81.9034 657.417 82.1662 657.596 82.3764C657.778 82.5838 658.009 82.7386 658.291 82.8409C658.575 82.9403 658.886 82.9901 659.224 82.9901C659.596 82.9901 659.927 82.9318 660.217 82.8153C660.509 82.696 660.739 82.5312 660.907 82.321C661.075 82.108 661.158 81.8594 661.158 81.5753C661.158 81.3168 661.085 81.1051 660.937 80.9403C660.792 80.7756 660.595 80.6392 660.345 80.5312C660.097 80.4233 659.818 80.3281 659.505 80.2457L658.474 79.9645C657.775 79.7741 657.221 79.4943 656.812 79.125C656.406 78.7557 656.203 78.267 656.203 77.6591C656.203 77.1562 656.339 76.7173 656.612 76.3423C656.884 75.9673 657.254 75.6761 657.72 75.4688C658.185 75.2585 658.711 75.1534 659.296 75.1534C659.887 75.1534 660.408 75.2571 660.86 75.4645C661.315 75.6719 661.673 75.9574 661.934 76.321C662.195 76.6818 662.332 77.0966 662.343 77.5653H661.073ZM666.909 82.2955V81.2301L670.68 75.2727H671.52V76.8409H670.987L668.29 81.1108V81.179H673.459V82.2955H666.909ZM671.047 84V81.9716L671.055 81.4858V75.2727H672.304V84H671.047ZM677.825 84.1193C677.291 84.1193 676.81 84.017 676.384 83.8125C675.961 83.6051 675.623 83.321 675.37 82.9602C675.117 82.5994 674.982 82.1875 674.965 81.7244H676.244C676.275 82.0994 676.441 82.4077 676.742 82.6491C677.043 82.8906 677.404 83.0114 677.825 83.0114C678.16 83.0114 678.457 82.9347 678.715 82.7812C678.977 82.625 679.181 82.4105 679.329 82.1378C679.479 81.8651 679.555 81.554 679.555 81.2045C679.555 80.8494 679.478 80.5327 679.325 80.2543C679.171 79.9759 678.96 79.7571 678.69 79.598C678.423 79.4389 678.116 79.358 677.769 79.3551C677.505 79.3551 677.239 79.4006 676.972 79.4915C676.705 79.5824 676.489 79.7017 676.325 79.8494L675.119 79.6705L675.609 75.2727H680.407V76.402H676.704L676.427 78.8438H676.478C676.649 78.679 676.874 78.5412 677.156 78.4304C677.44 78.3196 677.744 78.2642 678.068 78.2642C678.599 78.2642 679.072 78.3906 679.487 78.6435C679.904 78.8963 680.232 79.2415 680.471 79.679C680.712 80.1136 680.832 80.6136 680.829 81.179C680.832 81.7443 680.704 82.2486 680.445 82.6918C680.19 83.1349 679.835 83.4844 679.38 83.7401C678.928 83.9929 678.41 84.1193 677.825 84.1193ZM685.424 84.1449C684.75 84.142 684.175 83.9645 683.698 83.6122C683.221 83.2599 682.856 82.7472 682.603 82.0739C682.35 81.4006 682.223 80.5895 682.223 79.6406C682.223 78.6946 682.35 77.8864 682.603 77.2159C682.858 76.5455 683.225 76.0341 683.702 75.6818C684.182 75.3295 684.756 75.1534 685.424 75.1534C686.091 75.1534 686.664 75.331 687.141 75.6861C687.618 76.0384 687.983 76.5497 688.236 77.2202C688.492 77.8878 688.62 78.6946 688.62 79.6406C688.62 80.5923 688.493 81.4048 688.241 82.0781C687.988 82.7486 687.623 83.2614 687.145 83.6165C686.668 83.9688 686.094 84.1449 685.424 84.1449ZM685.424 83.0071C686.015 83.0071 686.476 82.7188 686.809 82.142C687.144 81.5653 687.312 80.7315 687.312 79.6406C687.312 78.9162 687.235 78.304 687.081 77.804C686.931 77.3011 686.714 76.9205 686.429 76.6619C686.148 76.4006 685.813 76.2699 685.424 76.2699C684.836 76.2699 684.374 76.5597 684.039 77.1392C683.704 77.7187 683.535 78.5526 683.532 79.6406C683.532 80.3679 683.607 80.983 683.758 81.4858C683.911 81.9858 684.128 82.3651 684.41 82.6236C684.691 82.8793 685.029 83.0071 685.424 83.0071Z" fill="white"/>
<line x1="43.2563" y1="79.4332" x2="671.911" y2="79.4332" stroke="#F00500" stroke-width="0.524316" stroke-linecap="round" stroke-dasharray="2.1 2.1"/>
</svg>
