<svg width="60" height="60" viewBox="0 0 60 60" fill="none" xmlns="http://www.w3.org/2000/svg">
<rect width="60" height="60" rx="13.7544" fill="#B0B0B0" fill-opacity="0.1"/>
<path d="M23.5599 44.3335C20.3866 44.3335 17.7866 42.0268 17.7866 39.1868V36.4668C17.7866 35.9201 18.24 35.4668 18.7866 35.4668C19.3333 35.4668 19.7866 35.9201 19.7866 36.4668C19.7866 38.1335 21.3999 39.3868 23.5599 39.3868C25.7199 39.3868 27.3333 38.1335 27.3333 36.4668C27.3333 35.9201 27.7866 35.4668 28.3332 35.4668C28.8799 35.4668 29.3332 35.9201 29.3332 36.4668V39.1868C29.3332 42.0268 26.7466 44.3335 23.5599 44.3335ZM20.1332 40.4935C20.7199 41.5868 22.0399 42.3335 23.5599 42.3335C25.0799 42.3335 26.3999 41.5735 26.9866 40.4935C26.0399 41.0668 24.8666 41.4001 23.5599 41.4001C22.2532 41.4001 21.0799 41.0668 20.1332 40.4935Z" fill="white"/>
<path d="M23.5599 37.7325C21.3732 37.7325 19.4133 36.7325 18.4399 35.1459C18.0133 34.4525 17.7866 33.6392 17.7866 32.8125C17.7866 31.4125 18.3999 30.1059 19.5199 29.1325C21.6799 27.2392 25.3999 27.2393 27.5732 29.1193C28.6932 30.106 29.3199 31.4125 29.3199 32.8125C29.3199 33.6392 29.0932 34.4525 28.6666 35.1459C27.7066 36.7325 25.7466 37.7325 23.5599 37.7325ZM23.5599 29.666C22.5199 29.666 21.5599 30.0125 20.8399 30.6392C20.1599 31.2259 19.7866 31.9992 19.7866 32.8125C19.7866 33.2792 19.9066 33.706 20.1466 34.106C20.7599 35.1193 22.0666 35.746 23.5599 35.746C25.0532 35.746 26.3599 35.1193 26.9599 34.1193C27.1999 33.7327 27.3199 33.2927 27.3199 32.826C27.3199 32.0127 26.9466 31.2392 26.2666 30.6392C25.5599 30.0125 24.5999 29.666 23.5599 29.666Z" fill="white"/>
<path d="M23.5599 41.3993C20.2666 41.3993 17.7866 39.2794 17.7866 36.4794V32.8127C17.7866 29.9727 20.3732 27.666 23.5599 27.666C25.0666 27.666 26.5066 28.186 27.5866 29.1193C28.7066 30.106 29.3332 31.4127 29.3332 32.8127V36.4794C29.3332 39.2794 26.8532 41.3993 23.5599 41.3993ZM23.5599 29.666C21.4799 29.666 19.7866 31.0793 19.7866 32.8127V36.4794C19.7866 38.146 21.3999 39.3993 23.5599 39.3993C25.7199 39.3993 27.3333 38.146 27.3333 36.4794V32.8127C27.3333 31.9993 26.96 31.226 26.28 30.626C25.56 30.0127 24.5999 29.666 23.5599 29.666Z" fill="white"/>
<path d="M39.3867 33.7342C37.3734 33.7342 35.6667 32.2409 35.5067 30.3209C35.4 29.2142 35.8 28.1342 36.6 27.3476C37.2667 26.6542 38.2134 26.2676 39.2134 26.2676H42C43.32 26.3076 44.3334 27.3476 44.3334 28.6276V31.3742C44.3334 32.6542 43.32 33.6942 42.04 33.7342H39.3867ZM41.96 28.2676H39.2267C38.76 28.2676 38.3334 28.4409 38.0267 28.7609C37.64 29.1342 37.4534 29.6409 37.5067 30.1476C37.5734 31.0276 38.4267 31.7342 39.3867 31.7342H42C42.1734 31.7342 42.3334 31.5742 42.3334 31.3742V28.6276C42.3334 28.4276 42.1734 28.2809 41.96 28.2676Z" fill="white"/>
<path d="M35.3338 42.3327H32.0004C31.4538 42.3327 31.0004 41.8793 31.0004 41.3327C31.0004 40.786 31.4538 40.3327 32.0004 40.3327H35.3338C38.7738 40.3327 41.0004 38.106 41.0004 34.666V33.7327H39.3871C37.3738 33.7327 35.6671 32.2393 35.5071 30.3193C35.4004 29.2127 35.8006 28.1327 36.6006 27.346C37.2672 26.6527 38.2138 26.266 39.2138 26.266H40.9871V25.3327C40.9871 22.2127 39.1606 20.066 36.2006 19.7193C35.8806 19.666 35.6004 19.666 35.3204 19.666H23.3205C23.0005 19.666 22.6938 19.6927 22.3871 19.7327C19.4538 20.106 17.6538 22.2393 17.6538 25.3327V27.9993C17.6538 28.546 17.2005 28.9993 16.6538 28.9993C16.1071 28.9993 15.6538 28.546 15.6538 27.9993V25.3327C15.6538 21.226 18.1872 18.2527 22.1205 17.7594C22.4805 17.706 22.8938 17.666 23.3205 17.666H35.3204C35.6404 17.666 36.0538 17.6793 36.4804 17.746C40.4138 18.1993 42.9871 21.186 42.9871 25.3327V27.266C42.9871 27.8127 42.5338 28.266 41.9871 28.266H39.2138C38.7471 28.266 38.3206 28.4393 38.0139 28.7593C37.6272 29.1327 37.4404 29.6393 37.4938 30.146C37.5604 31.026 38.4139 31.7327 39.3739 31.7327H42.0004C42.5471 31.7327 43.0004 32.186 43.0004 32.7327V34.666C43.0004 39.2527 39.9204 42.3327 35.3338 42.3327Z" fill="white"/>
</svg>
