<svg width="60" height="60" viewBox="0 0 60 60" fill="none" xmlns="http://www.w3.org/2000/svg">
<rect width="60" height="60" rx="13.7544" fill="#B0B0B0" fill-opacity="0.1"/>
<path d="M39.7337 24.56V31.4267C39.7337 35.5333 37.387 37.2933 33.867 37.2933H22.1469C21.5469 37.2933 20.9736 37.24 20.4403 37.12C20.1069 37.0667 19.7869 36.9733 19.4936 36.8667C17.4936 36.12 16.2803 34.3867 16.2803 31.4267V24.56C16.2803 20.4533 18.6269 18.6934 22.1469 18.6934H33.867C36.8537 18.6934 39.0003 19.96 39.5737 22.8533C39.667 23.3867 39.7337 23.9333 39.7337 24.56Z" stroke="white" stroke-width="2" stroke-miterlimit="10" stroke-linecap="round" stroke-linejoin="round"/>
<path d="M43.7348 28.5601V35.4268C43.7348 39.5335 41.3881 41.2935 37.8681 41.2935H26.1481C25.1614 41.2935 24.2681 41.1601 23.4948 40.8668C21.9081 40.2801 20.8281 39.0668 20.4414 37.1201C20.9747 37.2401 21.5481 37.2935 22.1481 37.2935H33.8681C37.3881 37.2935 39.7348 35.5335 39.7348 31.4268V24.5601C39.7348 23.9335 39.6815 23.3735 39.5748 22.8535C42.1081 23.3868 43.7348 25.1735 43.7348 28.5601Z" stroke="white" stroke-width="2" stroke-miterlimit="10" stroke-linecap="round" stroke-linejoin="round"/>
<path d="M27.9975 31.5205C29.9415 31.5205 31.5175 29.9445 31.5175 28.0005C31.5175 26.0565 29.9415 24.4805 27.9975 24.4805C26.0535 24.4805 24.4775 26.0565 24.4775 28.0005C24.4775 29.9445 26.0535 31.5205 27.9975 31.5205Z" stroke="white" stroke-width="2" stroke-miterlimit="10" stroke-linecap="round" stroke-linejoin="round"/>
<path d="M20.373 25.0664V30.9331" stroke="white" stroke-width="2" stroke-miterlimit="10" stroke-linecap="round" stroke-linejoin="round"/>
<path d="M35.6289 25.0664V30.9331" stroke="white" stroke-width="2" stroke-miterlimit="10" stroke-linecap="round" stroke-linejoin="round"/>
</svg>
